<svg width="1076" height="424" viewBox="0 0 1076 424" fill="none" xmlns="http://www.w3.org/2000/svg">
<rect x="108" y="216" width="100" height="100" rx="20" fill="#F8F8F8"/>
<rect x="216" y="216" width="100" height="100" rx="20" fill="#F8F8F8"/>
<rect x="216" y="324" width="100" height="100" rx="20" fill="#F8F8F8"/>
<rect y="108" width="100" height="100" rx="20" fill="#F8F8F8"/>
<rect y="216" width="100" height="100" rx="20" fill="#F8F8F8"/>
<rect x="108" width="100" height="100" rx="20" fill="#F8F8F8"/>
<rect x="216" y="108" width="100" height="100" rx="20" fill="#F8F8F8"/>
<rect x="488" y="270" width="100" height="100" rx="20" fill="#F8F8F8"/>
<rect x="596" y="270" width="100" height="100" rx="20" fill="#F8F8F8"/>
<rect x="380" y="162" width="100" height="100" rx="20" fill="#F8F8F8"/>
<rect x="380" y="270" width="100" height="100" rx="20" fill="#F8F8F8"/>
<rect x="380" y="54" width="100" height="100" rx="20" fill="#F8F8F8"/>
<rect x="488" y="54" width="100" height="100" rx="20" fill="#F8F8F8"/>
<rect x="596" y="54" width="100" height="100" rx="20" fill="#F8F8F8"/>
<rect x="596" y="162" width="100" height="100" rx="20" fill="#F8F8F8"/>
<rect x="868" y="216" width="100" height="100" rx="20" fill="#F8F8F8"/>
<rect x="976" y="216" width="100" height="100" rx="20" fill="#F8F8F8"/>
<rect x="976" y="324" width="100" height="100" rx="20" fill="#F8F8F8"/>
<rect x="760" y="108" width="100" height="100" rx="20" fill="#F8F8F8"/>
<rect x="760" y="216" width="100" height="100" rx="20" fill="#F8F8F8"/>
<rect x="868" width="100" height="100" rx="20" fill="#F8F8F8"/>
<rect x="976" y="108" width="100" height="100" rx="20" fill="#F8F8F8"/>
</svg>
