<?xml version="1.0" encoding="UTF-8"?>
<svg width="145px" height="243px" viewBox="0 0 145 243" version="1.1" xmlns="http://www.w3.org/2000/svg" xmlns:xlink="http://www.w3.org/1999/xlink">
    <title>Group</title>
    <g id="Page-1" stroke="none" stroke-width="1" fill="none" fill-rule="evenodd">
        <g id="DrawKit-Vector-Illustration-Animal-&amp;-Pets-(21)" transform="translate(-198.200000, -66.400000)">
            <g id="Illustration" transform="translate(191.444623, 66.886742)">
                <g id="Group" transform="translate(0.000000, 0.000000)">
                    <g transform="translate(7.490700, 0.000000)">
                        <path d="M111.664677,191.313258 C111.664677,191.313258 120.664677,187.213258 122.164677,166.213258 C123.664677,145.213258 114.464677,128.313258 113.564677,101.713258 C112.664677,75.1132584 127.664677,60.1132584 139.264677,68.7132584 C150.864677,77.3132584 133.464677,94.1132584 136.664677,128.813258 C139.864677,163.413258 140.764677,198.413258 113.264677,207.413258 C113.364677,207.413258 108.664677,200.913258 111.664677,191.313258 Z" id="Path" fill="#513F3B" fill-rule="nonzero"></path>
                        <path d="M39.0646766,241.513258 C39.0646766,241.513258 4.36467658,241.513258 2.26467658,241.513258 C0.164676575,241.513258 -2.43532342,225.713258 15.9646766,225.413258 C34.3646766,225.113258 45.4646766,225.413258 45.4646766,225.413258 L39.0646766,241.513258 Z" id="Path" fill="#513F3B" fill-rule="nonzero"></path>
                        <path d="M7.16467658,241.513258 C7.16467658,241.513258 6.16467658,237.713258 8.96467658,235.013258" id="Path" stroke="#1B1C1E"></path>
                        <path d="M13.7646766,241.513258 C13.7646766,241.513258 13.7646766,238.413258 15.1646766,237.013258" id="Path" stroke="#1B1C1E"></path>
                        <path d="M26.7646766,16.4132584 C26.7646766,16.4132584 14.5646766,-1.58674162 6.66467658,0.113258378 C-1.23532342,1.81325838 -2.33532342,38.9132584 4.56467658,41.2132584 C11.3646766,43.6132584 26.7646766,16.4132584 26.7646766,16.4132584 Z" id="Path" fill="#513F3B" fill-rule="nonzero"></path>
                        <path d="M62.5646766,17.7132584 C62.5646766,17.7132584 78.6646766,6.11325838 88.4646766,6.81325838 C98.3646766,7.41325838 88.2646766,36.6132584 80.9646766,44.1132584 C73.6646766,51.6132584 62.5646766,17.7132584 62.5646766,17.7132584 Z" id="Path" fill="#513F3B" fill-rule="nonzero"></path>
                        <path d="M17.5646766,79.4132584 C17.5646766,79.4132584 4.66467658,71.5132584 2.56467658,55.0132584 C0.464676575,38.5132584 7.96467658,12.4132584 43.9646766,12.4132584 C79.9646766,12.4132584 86.7646766,42.5132584 84.1646766,58.0132584 C81.7646766,72.7132584 74.3646766,77.3132584 74.3646766,77.3132584 C74.3646766,77.3132584 82.3646766,95.4132584 86.3646766,106.013258 C89.4646766,114.213258 90.9646766,122.613258 89.7646766,132.413258 C89.7646766,132.413258 101.764677,150.213258 109.264677,165.013258 C116.464677,179.213258 122.464677,214.813258 115.964677,238.913258 C115.564677,240.513258 114.064677,241.613258 112.464677,241.613258 L17.7646766,241.613258 C9.36467658,241.613258 -0.435323425,227.813258 7.26467658,173.113258 C7.26467658,173.113258 3.26467658,163.713258 6.76467658,144.213258 C10.2646766,124.713258 17.5646766,79.4132584 17.5646766,79.4132584 Z" id="Path" fill="#FFE6BD" fill-rule="nonzero"></path>
                        <path d="M100.864677,241.513258 C100.864677,241.513258 94.7646766,241.513258 92.9646766,241.513258 L48.8646766,241.513258 C43.7646766,228.213258 59.2646766,223.213258 67.1646766,223.213258 C73.2646766,223.213258 87.2646766,223.213258 87.2646766,223.213258 C87.2646766,223.213258 94.7646766,223.513258 97.9646766,228.713258 C101.764677,234.813258 101.064677,241.213258 100.864677,241.513258 Z" id="Path" fill="#513F3B" fill-rule="nonzero"></path>
                        <path d="M28.2646766,176.413258 C24.5646766,179.013258 21.1646766,180.513258 18.7646766,181.413258 C16.1646766,182.313258 13.2646766,181.713258 11.3646766,179.613258 C8.76467658,176.813258 7.16467658,173.013258 7.16467658,173.013258 C7.16467658,173.013258 4.56467658,166.913258 5.36467658,154.413258 C5.36467658,154.413258 5.66467658,146.213258 17.0646766,143.713258 C25.5646766,141.813258 30.1646766,145.913258 30.1646766,145.913258 C29.9646766,147.513258 29.6646766,149.113258 29.3646766,150.913258 C28.3646766,156.913258 29.5646766,167.313258 30.1646766,172.113258 C30.3646766,173.713258 29.6646766,175.413258 28.2646766,176.413258 Z" id="Path" fill="#513F3B" fill-rule="nonzero"></path>
                        <path d="M17.5646766,79.4132584 C17.5646766,79.4132584 19.1646766,80.4132584 19.6646766,80.5132584" id="Path" stroke="#1B1C1E"></path>
                        <path d="M7.16467658,173.113258 C7.16467658,173.113258 8.76467658,176.913258 11.3646766,179.713258 C13.2646766,181.713258 16.1646766,182.413258 18.7646766,181.413258 C21.1646766,180.513258 24.5646766,179.013258 28.2646766,176.413258 C29.6646766,175.413258 30.3646766,173.813258 30.0646766,172.113258 C29.4646766,167.313258 28.3646766,156.913258 29.2646766,150.913258 C30.5646766,142.913258 31.3646766,136.413258 31.3646766,136.413258" id="Path" stroke="#1B1C1E"></path>
                        <path d="M19.2646766,181.113258 C19.2646766,181.113258 15.2646766,178.013258 14.7646766,172.413258" id="Path" stroke="#1B1C1E"></path>
                        <path d="M25.5646766,178.113258 C25.5646766,178.113258 22.5646766,175.313258 22.2646766,170.413258" id="Path" stroke="#1B1C1E"></path>
                        <path d="M75.2646766,151.513258 C68.2646766,155.813258 64.6646766,158.313258 65.0646766,163.113258 C65.5646766,168.713258 61.2646766,169.213258 59.3646766,169.713258 C56.5646766,170.413258 51.2646766,170.913258 47.1646766,170.413258 C45.3646766,170.213258 41.8646766,166.913258 41.8646766,159.513258 C41.8646766,152.713258 47.3646766,141.113258 57.9646766,135.213258 C57.9646766,135.213258 66.6646766,133.513258 72.4646766,140.213258 C76.2646766,144.713258 75.2646766,151.513258 75.2646766,151.513258 Z" id="Path" fill="#513F3B" fill-rule="nonzero"></path>
                        <path d="M89.7646766,132.413258 C89.7646766,132.413258 88.4646766,143.213258 78.9646766,149.213258 C69.4646766,155.213258 64.4646766,157.613258 64.9646766,163.213258 C65.4646766,168.813258 61.1646766,169.313258 59.2646766,169.813258 C56.4646766,170.513258 51.1646766,171.013258 47.0646766,170.513258 C45.2646766,170.313258 41.7646766,167.013258 41.7646766,159.613258 C41.7646766,152.813258 47.2646766,141.213258 57.8646766,135.313258" id="Path" stroke="#1B1C1E"></path>
                        <path d="M53.2646766,170.513258 C53.2646766,170.513258 48.3646766,169.413258 48.6646766,161.913258" id="Path" stroke="#1B1C1E"></path>
                        <path d="M59.3646766,169.713258 C59.3646766,169.713258 56.1646766,167.513258 56.5646766,161.913258" id="Path" stroke="#1B1C1E"></path>
                        <path d="M99.7646766,167.413258 C99.7646766,167.413258 90.7646766,156.313258 76.6646766,164.313258 C63.6646766,171.713258 60.4646766,205.813258 71.5646766,223.113258" id="Path" stroke="#1B1C1E"></path>
                        <path d="M48.9646766,241.513258 C43.8646766,228.213258 59.3646766,223.213258 67.2646766,223.213258 C73.3646766,223.213258 87.3646766,223.213258 87.3646766,223.213258" id="Path" stroke="#1B1C1E"></path>
                        <path d="M56.0646766,241.513258 C56.0646766,241.513258 53.5646766,237.613258 56.0646766,235.013258" id="Path" stroke="#1B1C1E"></path>
                        <path d="M61.7646766,241.513258 C61.7646766,241.513258 61.1646766,237.113258 62.8646766,235.613258" id="Path" stroke="#1B1C1E"></path>
                        <path d="M43.2646766,76.4132584 C43.2646766,76.4132584 25.4646766,72.5132584 17.5646766,61.6132584 C9.66467658,50.7132584 14.1646766,35.1132584 16.0646766,32.5132584 C17.9646766,30.0132584 19.9646766,20.9132584 45.8646766,22.1132584 C66.1646766,23.1132584 73.5646766,34.0132584 74.7646766,41.3132584 C75.8646766,47.9132584 74.1646766,60.2132584 66.6646766,66.2132584 C56.0646766,74.7132584 43.2646766,76.4132584 43.2646766,76.4132584 Z" id="Path" fill="#513F3B" fill-rule="nonzero"></path>
                        <g transform="translate(20.864677, 35.305034)" fill-rule="nonzero">
                            <path d="M13.2,6.30822431 C13.5,5.80822431 13.5,5.30822431 13.2,4.80822431 C12.2,3.30822431 9.8,-0.191775694 6.6,0.00822430629 C2.8,0.208224306 0,4.30822431 0,5.60822431 C0,7.30822431 2.6,11.1082243 6.5,11.5082243 C9.5,11.7082243 12.2,7.90822431 13.2,6.30822431 Z" id="Path" fill="#9BBEDC"></path>
                            <ellipse id="Oval" fill="#1B1C1E" cx="6.5" cy="5.50822431" rx="3.2" ry="4.3"></ellipse>
                        </g>
                        <g transform="translate(30.249123, 41.994308)" id="Path" stroke="#1B1C1E">
                            <path d="M10.3155534,3.81895004 C10.3155534,3.81895004 5.01555341,3.41895004 2.01555341,6.51895004 C-0.984446595,9.61895004 -0.484446595,14.71895 2.51555341,16.61895 C5.21555341,18.41895 6.61555341,14.11895 10.3155534,13.91895 C14.0155534,13.71895 13.6155534,11.01895 13.8155534,8.31895004 C13.9155534,5.71895004 10.3155534,3.81895004 10.3155534,3.81895004 Z"></path>
                            <path d="M13.5155534,11.81895 C13.5155534,11.81895 13.3155534,13.61895 15.3155534,14.51895 C17.3155534,15.51895 19.0155534,15.21895 21.1155534,17.61895 C23.2155534,19.91895 27.3155534,17.21895 27.3155534,12.81895 C27.3155534,7.81895004 24.0155534,4.31895004 18.0155534,4.11895004 C12.0155534,3.91895004 14.0155534,6.11895004 14.0155534,6.11895004 L13.5155534,11.81895 Z"></path>
                            <path d="M5.71555341,16.31895 C5.71555341,16.31895 8.21555341,19.81895 12.4155534,20.21895 C16.3155534,20.61895 19.8155534,18.21895 20.4155534,17.01895"></path>
                            <path d="M13.8155534,8.41895004 C13.8155534,8.41895004 9.51555341,5.71895004 8.91555341,3.41895004 C8.31555341,1.21895004 9.51555341,-0.181049961 14.5155534,0.0189500386 C18.6155534,0.218950039 20.4155534,1.81895004 18.8155534,4.41895004 C17.2155534,6.71895004 13.8155534,8.41895004 13.8155534,8.41895004 Z" fill="#1B1C1E" fill-rule="nonzero"></path>
                        </g>
                        <g opacity="0.88" transform="translate(60.404472, 62.354868)" fill="#443730" fill-rule="nonzero" id="Path">
                            <g transform="translate(0.000000, 0.000000)">
                                <path d="M18.2602041,12.6583903 C18.3602041,12.7583903 18.4602041,12.8583903 18.5602041,12.9583903 C18.5602041,12.9583903 18.4602041,12.8583903 18.2602041,12.6583903 Z"></path>
                                <path d="M12.2602041,16.9583903 C12.2602041,16.9583903 12.2602041,16.9583903 12.2602041,16.9583903 L12.1602041,16.8583903 L12.2602041,16.9583903 Z"></path>
                                <path d="M12.2602041,16.7583903 L12.0602041,16.2583903 C12.1602041,16.4583903 12.1602041,16.6583903 12.2602041,16.7583903 Z"></path>
                                <path d="M20.8602041,15.1583903 C20.9602041,15.2583903 21.1602041,15.3583903 21.3602041,15.5583903 L20.8602041,15.1583903 Z"></path>
                                <path d="M21.3602041,17.3583903 C21.3602041,17.4583903 21.4602041,17.5583903 21.4602041,17.5583903 C21.4602041,17.5583903 21.3602041,17.4583903 21.3602041,17.3583903 Z"></path>
                                <path d="M22.3602041,7.55839035 C22.2602041,7.55839035 22.2602041,7.45839035 22.1602041,7.45839035 C22.2602041,7.45839035 22.2602041,7.45839035 22.3602041,7.55839035 Z"></path>
                                <path d="M23.3602041,7.75839035 C23.3602041,7.65839035 23.3602041,7.65839035 23.3602041,7.75839035 L23.5602041,7.75839035 C23.5602041,7.85839035 23.3602041,7.75839035 23.3602041,7.75839035 Z"></path>
                                <path d="M23.6602041,8.35839035 L23.7602041,8.35839035 C23.7602041,8.35839035 23.7602041,8.35839035 23.6602041,8.35839035 Z"></path>
                                <path d="M30.6602041,9.65839035 L31.0602041,9.95839035 C30.9602041,9.85839035 30.7602041,9.75839035 30.6602041,9.65839035 Z"></path>
                                <path d="M21.8602041,7.15839035 C21.9602041,7.25839035 22.0602041,7.35839035 22.2602041,7.45839035 C22.0602041,7.35839035 21.9602041,7.35839035 21.8602041,7.15839035 Z"></path>
                                <path d="M18.1602041,12.4583903 C18.2602041,12.5583903 18.2602041,12.5583903 18.2602041,12.6583903 C18.2602041,12.5583903 18.1602041,12.5583903 18.1602041,12.4583903 Z"></path>
                                <path d="M9.56020408,17.5583903 C9.46020408,17.5583903 9.36020408,17.4583903 9.36020408,17.4583903 C9.36020408,17.1583903 9.46020408,17.2583903 9.56020408,17.5583903 Z"></path>
                                <path d="M21.8602041,9.55839035 C22.8602041,10.7583903 22.0602041,9.45839035 23.0602041,10.5583903 C22.7602041,10.4583903 22.4602041,10.2583903 22.9602041,10.9583903 C23.6602041,11.5583903 23.1602041,10.6583903 24.0602041,11.6583903 L23.5602041,11.4583903 C23.8602041,12.0583903 24.7602041,12.6583903 24.5602041,12.6583903 C23.2602041,11.4583903 24.5602041,13.6583903 24.1602041,13.5583903 L24.3602041,13.6583903 L24.6602041,14.5583903 C24.6602041,14.5583903 24.6602041,14.5583903 24.7602041,14.6583903 C24.6602041,14.5583903 24.6602041,14.5583903 24.5602041,14.4583903 C25.0602041,15.2583903 25.2602041,15.8583903 24.8602041,15.8583903 C24.1602041,15.1583903 23.9602041,16.1583903 23.2602041,15.5583903 C23.4602041,15.6583903 23.5602041,15.6583903 23.5602041,15.3583903 L22.7602041,14.4583903 C22.5602041,14.6583903 23.4602041,15.3583903 22.7602041,14.9583903 C21.7602041,13.6583903 23.0602041,14.7583903 23.0602041,14.4583903 C22.7602041,14.1583903 22.4602041,13.9583903 22.2602041,13.9583903 C22.5602041,13.6583903 22.3602041,13.0583903 23.6602041,14.1583903 C23.4602041,13.8583903 23.0602041,13.3583903 22.8602041,13.2583903 C23.6602041,13.8583903 22.3602041,12.4583903 23.1602041,12.9583903 C22.1602041,11.8583903 22.2602041,12.6583903 21.5602041,12.1583903 C22.0602041,13.2583903 21.0602041,12.6583903 20.6602041,12.6583903 C21.3602041,13.5583903 22.1602041,14.1583903 22.4602041,14.7583903 C22.6602041,15.5583903 21.7602041,14.4583903 21.2602041,14.0583903 C21.2602041,14.5583903 22.3602041,15.5583903 22.0602041,15.8583903 L22.6602041,16.2583903 C23.3602041,17.6583903 22.0602041,15.8583903 22.1602041,16.2583903 C21.9602041,15.8583903 21.7602041,15.5583903 21.9602041,15.4583903 C21.6602041,14.9583903 21.3602041,14.8583903 21.2602041,14.8583903 L21.2602041,14.7583903 C20.7602041,14.1583903 20.2602041,13.5583903 20.2602041,13.9583903 C20.9602041,14.6583903 20.5602041,14.6583903 20.7602041,15.0583903 L20.9602041,15.1583903 C20.6602041,15.0583903 20.5602041,15.2583903 20.3602041,15.1583903 L20.4602041,15.3583903 C20.1602041,15.1583903 19.4602041,14.1583903 19.3602041,14.4583903 C19.6602041,14.8583903 20.5602041,15.7583903 20.2602041,15.7583903 C20.6602041,16.3583903 20.9602041,16.2583903 20.9602041,15.9583903 C20.9602041,16.2583903 21.4602041,17.2583903 21.7602041,17.2583903 C22.1602041,18.0583903 21.3602041,17.0583903 21.4602041,17.4583903 C21.3602041,17.2583903 21.1602041,16.9583903 20.9602041,16.7583903 C21.6602041,17.7583903 20.5602041,17.1583903 20.1602041,16.3583903 L20.7602041,16.7583903 C20.2602041,15.9583903 19.6602041,15.5583903 19.4602041,15.0583903 C20.1602041,16.4583903 18.5602041,14.7583903 19.0602041,15.9583903 L18.7602041,15.2583903 C18.5602041,15.9583903 17.3602041,14.6583903 16.7602041,14.5583903 C17.1602041,14.8583903 17.9602041,16.3583903 17.9602041,15.6583903 C17.7602041,16.1583903 18.6602041,17.1583903 18.9602041,17.9583903 C18.9602041,18.7583903 18.0602041,16.6583903 17.6602041,16.2583903 C17.7602041,16.3583903 17.9602041,16.3583903 18.0602041,16.3583903 C16.8602041,14.8583903 17.3602041,17.1583903 16.3602041,16.3583903 C16.5602041,16.8583903 16.5602041,16.5583903 16.7602041,16.7583903 C17.0602041,17.7583903 16.4602041,16.6583903 16.1602041,16.3583903 C16.0602041,16.5583903 15.9602041,17.1583903 16.6602041,18.1583903 C16.5602041,18.5583903 16.3602041,17.4583903 16.0602041,17.1583903 L16.1602041,17.4583903 L15.3602041,16.3583903 C15.3602041,16.8583903 15.3602041,17.5583903 15.7602041,18.6583903 C15.1602041,18.6583903 14.4602041,16.1583903 13.9602041,15.9583903 C14.0602041,16.6583903 14.3602041,16.8583903 14.5602041,17.2583903 L14.1602041,17.2583903 C14.7602041,18.4583903 14.7602041,17.7583903 15.3602041,19.2583903 C14.4602041,17.8583903 14.7602041,18.9583903 14.0602041,18.1583903 L14.0602041,18.0583903 C13.4602041,17.0583903 13.4602041,17.9583903 13.1602041,17.8583903 C13.4602041,18.4583903 13.7602041,18.4583903 13.9602041,18.5583903 C13.9602041,19.1583903 13.1602041,18.8583903 12.4602041,17.6583903 C12.3602041,17.9583903 12.2602041,18.5583903 12.6602041,19.0583903 C12.2602041,19.4583903 11.8602041,17.1583903 11.5602041,17.7583903 L11.8602041,18.7583903 C11.8602041,20.3583903 10.5602041,17.6583903 10.5602041,19.1583903 L10.1602041,17.8583903 C10.2602041,18.4583903 10.0602041,18.7583903 10.1602041,19.2583903 L10.4602041,19.6583903 C10.5602041,20.7583903 9.96020408,18.6583903 9.96020408,19.4583903 C9.86020408,19.0583903 9.86020408,18.1583903 9.76020408,17.7583903 C10.2602041,18.0583903 10.6602041,17.6583903 11.0602041,17.3583903 C11.4602041,17.0583903 11.7602041,16.7583903 12.4602041,17.1583903 C12.4602041,17.3583903 12.4602041,17.4583903 12.5602041,17.7583903 C12.5602041,17.4583903 12.8602041,17.6583903 12.5602041,17.0583903 L12.4602041,16.9583903 C12.7602041,17.1583903 12.4602041,15.5583903 12.5602041,15.5583903 C12.9602041,16.3583903 12.8602041,15.0583903 13.3602041,16.4583903 L13.1602041,15.4583903 C13.4602041,15.9583903 13.6602041,16.6583903 13.8602041,16.8583903 C13.9602041,16.6583903 13.7602041,16.1583903 13.4602041,15.8583903 C13.8602041,15.1583903 14.4602041,14.8583903 15.2602041,15.0583903 L14.7602041,14.4583903 C14.7602041,14.0583903 15.8602041,15.3583903 14.8602041,13.7583903 C15.4602041,14.2583903 15.3602041,12.9583903 16.2602041,14.6583903 C15.5602041,12.9583903 16.4602041,13.5583903 17.0602041,13.5583903 C17.8602041,14.9583903 17.5602041,13.7583903 18.0602041,14.3583903 C17.4602041,13.2583903 17.0602041,13.4583903 16.6602041,12.7583903 C18.0602041,14.1583903 16.8602041,10.9583903 18.8602041,13.5583903 C18.8602041,13.4583903 18.7602041,13.3583903 18.6602041,13.2583903 C18.7602041,13.1583903 18.5602041,12.6583903 18.4602041,12.5583903 C18.8602041,12.9583903 18.8602041,13.3583903 19.0602041,13.3583903 C19.1602041,13.1583903 18.5602041,12.4583903 18.3602041,12.0583903 C19.0602041,12.4583903 19.5602041,12.4583903 20.4602041,13.4583903 C20.3602041,13.1583903 19.9602041,12.4583903 19.7602041,12.3583903 C20.7602041,12.8583903 20.0602041,11.9583903 20.8602041,12.1583903 C20.6602041,12.2583903 19.9602041,11.1583903 20.0602041,11.6583903 C19.0602041,10.0583903 20.8602041,11.4583903 20.5602041,10.4583903 L21.4602041,11.2583903 C21.7602041,11.2583903 21.0602041,10.3583903 20.6602041,10.1583903 C20.4602041,9.35839035 21.1602041,9.75839035 21.3602041,9.55839035 C21.2602041,9.45839035 21.0602041,9.25839035 21.1602041,9.35839035 L21.4602041,9.05839035 C21.6602041,9.25839035 22.2602041,9.55839035 22.6602041,10.1583903 C22.0602041,9.35839035 21.7602041,9.05839035 21.8602041,9.55839035 Z"></path>
                                <path d="M22.5602041,9.75839035 L22.6602041,9.85839035 L22.6602041,9.85839035 C22.6602041,9.85839035 22.6602041,9.85839035 22.5602041,9.75839035 Z"></path>
                                <path d="M22.3602041,16.6583903 C22.2602041,16.3583903 22.1602041,16.2583903 22.1602041,16.1583903 C22.2602041,16.2583903 22.2602041,16.4583903 22.3602041,16.6583903 Z"></path>
                                <path d="M27.2602041,7.95839035 C28.5602041,9.15839035 26.8602041,7.95839035 27.0602041,8.45839035 C27.3602041,8.45839035 28.1602041,9.15839035 28.5602041,9.55839035 C26.6602041,8.25839035 28.6602041,10.0583903 28.0602041,10.1583903 C28.6602041,10.6583903 28.8602041,10.5583903 29.5602041,11.0583903 C28.9602041,10.8583903 28.4602041,10.9583903 27.4602041,10.1583903 C27.1602041,10.4583903 27.2602041,11.0583903 26.8602041,11.0583903 C27.4602041,11.1583903 27.8602041,11.9583903 28.8602041,12.4583903 C27.4602041,11.6583903 25.6602041,10.9583903 24.0602041,9.95839035 C25.0602041,11.0583903 25.0602041,11.1583903 26.0602041,12.0583903 C26.3602041,13.1583903 25.0602041,11.2583903 24.9602041,11.8583903 L24.9602041,11.5583903 C24.4602041,11.3583903 23.5602041,10.4583903 22.8602041,9.75839035 C23.0602041,9.65839035 23.2602041,9.65839035 23.3602041,9.55839035 C22.6602041,8.85839035 22.5602041,9.15839035 22.2602041,9.05839035 C21.3602041,8.25839035 21.8602041,8.25839035 21.2602041,7.65839035 C21.8602041,8.15839035 21.8602041,7.85839035 22.1602041,7.95839035 L21.8602041,7.55839035 C21.6602041,6.95839035 22.6602041,7.85839035 22.7602041,7.65839035 C22.6602041,7.55839035 22.5602041,7.45839035 22.5602041,7.35839035 C23.0602041,7.75839035 23.5602041,8.15839035 23.8602041,8.15839035 L23.7602041,8.15839035 C24.7602041,8.85839035 25.7602041,9.05839035 26.4602041,10.2583903 L26.5602041,9.55839035 C25.4602041,8.65839035 23.8602041,7.35839035 23.5602041,7.45839035 L23.1602041,7.05839035 C22.7602041,6.35839035 24.3602041,7.35839035 25.1602041,8.25839035 C27.7602041,10.2583903 25.8602041,7.65839035 27.1602041,8.25839035 C26.4602041,7.65839035 26.0602041,7.55839035 25.5602041,7.25839035 C25.3602041,7.25839035 25.3602041,7.35839035 25.8602041,7.85839035 C25.1602041,7.95839035 23.7602041,5.85839035 23.6602041,6.55839035 C23.8602041,7.05839035 24.9602041,7.25839035 24.7602041,7.65839035 L22.7602041,6.15839035 C22.9602041,6.05839035 23.4602041,6.15839035 23.7602041,6.15839035 C24.7602041,6.25839035 25.1602041,5.95839035 25.2602041,5.55839035 C25.3602041,5.15839035 25.2602041,4.85839035 25.2602041,4.85839035 C26.5602041,3.65839035 27.7602041,2.45839035 28.7602041,1.15839035 C29.3602041,0.858390346 29.2602041,0.658390346 31.6602041,1.55839035 C32.0602041,1.85839035 31.6602041,2.05839035 32.4602041,2.35839035 C31.6602041,1.95839035 31.0602041,1.95839035 30.9602041,2.25839035 C31.7602041,2.75839035 31.4602041,2.25839035 31.6602041,2.35839035 L31.6602041,2.45839035 C32.0602041,2.65839035 32.3602041,2.75839035 32.4602041,2.65839035 C33.4602041,3.65839035 32.8602041,4.15839035 31.2602041,3.45839035 C31.8602041,4.15839035 32.5602041,4.05839035 33.2602041,4.25839035 C33.3602041,5.55839035 32.7602041,6.05839035 32.2602041,7.05839035 C30.9602041,6.15839035 31.3602041,6.55839035 30.3602041,6.05839035 L30.7602041,6.45839035 C30.5602041,6.25839035 29.5602041,5.75839035 29.4602041,5.35839035 C30.1602041,6.55839035 27.3602041,4.65839035 26.5602041,4.55839035 L27.2602041,5.05839035 C26.9602041,5.25839035 26.8602041,5.25839035 26.3602041,5.25839035 C27.2602041,6.55839035 26.8602041,5.05839035 28.3602041,6.35839035 L27.9602041,6.25839035 C28.6602041,6.65839035 29.7602041,7.45839035 30.3602041,7.65839035 C28.9602041,7.25839035 30.3602041,8.55839035 29.1602041,8.35839035 C29.9602041,8.85839035 30.7602041,8.85839035 30.9602041,8.85839035 C30.8602041,9.05839035 30.1602041,8.95839035 30.8602041,9.45839035 L29.9602041,8.75839035 C29.6602041,8.95839035 30.8602041,9.35839035 31.3602041,9.95839035 C30.4602041,10.6583903 28.1602041,7.85839035 27.2602041,7.95839035 Z"></path>
                                <path d="M22.1602041,13.8583903 C22.1602041,13.7583903 22.2602041,13.7583903 22.3602041,13.7583903 C22.3602041,13.7583903 22.2602041,13.8583903 22.1602041,13.8583903 Z"></path>
                                <path d="M24.7602041,14.4583903 C24.8602041,14.5583903 24.9602041,14.6583903 25.0602041,14.7583903 C24.9602041,14.7583903 24.8602041,14.6583903 24.7602041,14.4583903 Z"></path>
                                <path d="M25.9602041,15.5583903 C25.6602041,15.1583903 25.5602041,15.1583903 25.0602041,14.7583903 C25.3602041,14.9583903 25.5602041,14.8583903 25.9602041,15.5583903 Z"></path>
                                <path d="M0.560204082,24.2583903 C0.560204082,23.9583903 0.260204082,23.5583903 0.360204082,23.2583903 L0.660204082,23.6583903 L0.560204082,24.2583903 Z"></path>
                                <path d="M1.16020408,23.0583903 L1.46020408,22.5583903 L1.66020408,24.1583903 C1.36020408,24.1583903 1.56020408,23.0583903 1.16020408,23.0583903 Z"></path>
                                <path d="M2.06020408,22.1583903 L1.96020408,21.7583903 C2.06020408,21.9583903 2.06020408,22.0583903 2.06020408,22.1583903 Z"></path>
                                <path d="M2.06020408,22.7583903 L2.16020408,23.8583903 L1.76020408,23.0583903 L1.96020408,22.8583903 C1.96020408,22.4583903 2.06020408,22.2583903 2.06020408,22.1583903 L2.26020408,22.9583903 C2.16020408,22.8583903 2.06020408,22.6583903 2.06020408,22.7583903 Z"></path>
                                <path d="M2.46020408,22.8583903 C2.46020408,22.9583903 2.46020408,23.0583903 2.46020408,23.1583903 C2.36020408,23.0583903 2.36020408,22.9583903 2.46020408,22.8583903 Z"></path>
                                <path d="M3.06020408,20.7583903 C2.96020408,21.1583903 3.16020408,21.7583903 3.26020408,22.2583903 C2.96020408,22.6583903 2.86020408,21.0583903 2.66020408,21.5583903 C3.06020408,22.4583903 2.56020408,22.2583903 2.46020408,22.8583903 C2.56020408,21.7583903 2.66020408,21.0583903 2.96020408,20.7583903 L3.06020408,21.4583903 C3.06020408,21.4583903 2.96020408,21.0583903 3.06020408,20.7583903 Z"></path>
                                <path d="M4.76020408,22.3583903 L4.46020408,21.3583903 C4.46020408,21.8583903 4.06020408,21.8583903 4.16020408,22.9583903 C4.06020408,22.8583903 3.96020408,22.3583903 3.86020408,22.0583903 C3.76020408,22.6583903 3.76020408,23.0583903 3.56020408,22.2583903 C4.06020408,21.4583903 3.86020408,21.2583903 4.36020408,20.9583903 C4.36020408,20.7583903 4.26020408,20.7583903 4.26020408,20.8583903 L4.56020408,20.2583903 C4.56020408,21.4583903 5.06020408,21.5583903 4.76020408,22.3583903 Z"></path>
                                <path d="M5.16020408,21.5583903 C4.86020408,21.5583903 4.66020408,20.5583903 4.76020408,19.8583903 L5.36020408,20.6583903 C5.16020408,20.5583903 4.96020408,20.4583903 5.16020408,21.5583903 Z"></path>
                                <path d="M5.56020408,21.4583903 C5.56020408,20.8583903 5.66020408,19.6583903 5.96020408,20.7583903 C5.56020408,20.5583903 5.96020408,22.1583903 5.56020408,21.4583903 Z"></path>
                                <path d="M7.26020408,20.1583903 L6.86020408,20.9583903 C6.96020408,22.3583903 7.16020408,21.3583903 7.46020408,21.9583903 C7.06020408,22.2583903 7.16020408,21.8583903 6.66020408,21.0583903 C6.56020408,21.1583903 6.26020408,20.4583903 6.06020408,20.0583903 C6.86020408,21.0583903 6.36020408,17.7583903 7.26020408,20.1583903 Z"></path>
                                <polygon points="6.46020408 21.7583903 6.26020408 21.1583903 6.56020408 21.5583903"></polygon>
                                <path d="M8.06020408,18.5583903 C7.96020408,16.8583903 8.76020408,19.3583903 8.96020408,18.5583903 C8.86020408,18.4583903 8.86020408,18.3583903 8.76020408,18.1583903 L9.06020408,18.2583903 L8.96020408,17.8583903 C9.16020408,18.8583903 9.56020408,19.1583903 9.86020408,19.8583903 C9.86020408,20.9583903 9.46020408,18.6583903 9.46020408,19.8583903 C9.66020408,20.2583903 9.86020408,20.9583903 9.96020408,21.2583903 C9.66020408,20.8583903 9.46020408,20.2583903 9.26020408,19.7583903 C9.06020408,19.6583903 9.26020408,20.2583903 9.26020408,20.5583903 C8.96020408,20.0583903 8.56020408,18.6583903 8.36020408,19.0583903 C8.36020408,19.9583903 8.76020408,20.3583903 8.36020408,20.0583903 C8.26020408,18.4583903 8.06020408,20.3583903 7.76020408,19.4583903 C7.56020408,19.7583903 7.56020408,20.7583903 7.66020408,21.3583903 C7.46020408,20.1583903 7.06020408,19.1583903 6.76020408,18.8583903 L7.36020408,19.7583903 L7.26020408,18.3583903 C7.76020408,18.9583903 7.96020408,18.8583903 8.06020408,18.5583903 L8.06020408,18.5583903 Z"></path>
                                <path d="M9.96020408,21.2583903 C10.0602041,21.3583903 10.0602041,21.4583903 10.1602041,21.4583903 C10.1602041,21.5583903 10.0602041,21.4583903 9.96020408,21.2583903 Z"></path>
                                <polygon points="7.76020408 21.7583903 7.96020408 22.0583903 7.96020408 22.4583903"></polygon>
                                <path d="M10.4602041,22.1583903 C10.3602041,22.2583903 10.2602041,21.7583903 10.3602041,21.6583903 L10.6602041,22.2583903 L10.4602041,22.1583903 Z"></path>
                                <polygon points="10.5602041 21.2583903 10.4602041 20.3583903 10.7602041 21.0583903"></polygon>
                                <path d="M16.1602041,18.3583903 C16.1602041,18.8583903 15.7602041,17.9583903 15.4602041,17.3583903 C15.6602041,17.0583903 15.8602041,18.1583903 16.1602041,18.3583903 Z"></path>
                                <path d="M20.2602041,17.4583903 C20.3602041,18.1583903 19.7602041,17.4583903 19.5602041,17.5583903 C19.4602041,17.0583903 19.8602041,17.1583903 20.2602041,17.4583903 Z"></path>
                                <path d="M23.6602041,19.2583903 C23.4602041,19.0583903 23.2602041,18.9583903 23.2602041,18.7583903 L22.0602041,17.4583903 C22.0602041,16.8583903 23.2602041,18.6583903 23.6602041,19.2583903 Z"></path>
                                <path d="M25.4602041,18.1583903 L24.7602041,17.8583903 L24.8602041,17.7583903 C24.3602041,17.2583903 24.1602041,17.0583903 23.6602041,16.6583903 C24.1602041,16.7583903 24.7602041,17.1583903 25.4602041,18.1583903 Z"></path>
                                <path d="M23.2602041,16.5583903 C23.2602041,16.5583903 23.3602041,16.5583903 23.4602041,16.5583903 C23.5602041,16.7583903 23.6602041,16.9583903 23.2602041,16.5583903 Z"></path>
                                <path d="M23.5602041,16.5583903 C23.6602041,16.6583903 23.6602041,16.6583903 23.7602041,16.6583903 C23.6602041,16.6583903 23.5602041,16.5583903 23.4602041,16.5583903 C23.3602041,16.4583903 23.3602041,16.2583903 23.5602041,16.5583903 Z"></path>
                                <path d="M25.1602041,17.3583903 L25.7602041,17.1583903 L25.7602041,17.5583903 C25.0602041,16.7583903 25.9602041,18.2583903 25.1602041,17.3583903 Z"></path>
                                <path d="M26.8602041,14.6583903 L26.1602041,13.8583903 C26.2602041,13.4583903 28.1602041,14.7583903 27.1602041,13.4583903 C27.4602041,14.0583903 28.1602041,14.0583903 28.0602041,14.6583903 C27.3602041,14.0583903 26.8602041,14.3583903 26.8602041,14.6583903 Z"></path>
                                <path d="M26.7602041,12.6583903 C26.4602041,12.4583903 26.4602041,12.2583903 26.2602041,12.0583903 C26.2602041,11.8583903 26.6602041,12.1583903 26.9602041,12.4583903 C25.8602041,11.5583903 27.4602041,13.1583903 26.7602041,12.6583903 Z"></path>
                                <path d="M27.9602041,11.5583903 C27.8602041,11.6583903 27.6602041,11.6583903 27.5602041,11.3583903 C27.8602041,11.1583903 28.6602041,12.0583903 29.2602041,12.4583903 C29.5602041,13.0583903 28.2602041,12.0583903 27.9602041,11.5583903 Z"></path>
                                <path d="M23.5602041,4.85839035 C24.2602041,5.45839035 23.9602041,5.55839035 23.7602041,5.35839035 C23.9602041,5.35839035 23.7602041,5.05839035 23.5602041,4.85839035 Z"></path>
                                <polygon points="29.3602041 9.55839035 29.4602041 9.75839035 28.3602041 8.95839035"></polygon>
                                <polygon points="31.0602041 8.55839035 31.9602041 8.85839035 31.6602041 9.05839035"></polygon>
                                <path d="M31.1602041,8.15839035 L31.3602041,7.95839035 L31.5602041,8.25839035 C31.7602041,8.45839035 31.2602041,8.05839035 31.1602041,8.15839035 Z"></path>
                                <path d="M31.8602041,7.45839035 C31.7602041,7.45839035 31.8602041,7.55839035 31.9602041,7.65839035 L31.3602041,7.55839035 L31.8602041,7.45839035 Z"></path>
                                <path d="M29.3602041,0.658390346 C28.5602041,0.258390346 29.1602041,0.358390346 28.9602041,0.258390346 C29.1602041,0.358390346 30.1602041,0.958390346 29.3602041,0.658390346 Z"></path>
                            </g>
                        </g>
                        <g opacity="0.88" transform="translate(65.701049, 130.899631)" fill="#443730" fill-rule="nonzero" id="Path">
                            <g>
                                <path d="M17.7636271,15.3136271 C17.8636271,15.3136271 17.8636271,15.3136271 17.9636271,15.4136271 C17.9636271,15.4136271 17.8636271,15.4136271 17.7636271,15.3136271 Z"></path>
                                <path d="M11.9636271,19.8136271 L11.7636271,19.6136271 C11.9636271,19.7136271 11.9636271,19.8136271 11.9636271,19.8136271 Z"></path>
                                <path d="M19.3636271,15.9136271 C19.4636271,15.9136271 19.5636271,15.9136271 19.6636271,15.9136271 L19.3636271,15.9136271 Z"></path>
                                <path d="M19.4636271,17.1136271 C19.4636271,17.1136271 19.4636271,17.2136271 19.4636271,17.2136271 C19.4636271,17.2136271 19.4636271,17.1136271 19.4636271,17.1136271 Z"></path>
                                <path d="M21.3636271,9.81362712 C21.2636271,9.71362712 21.2636271,9.71362712 21.3636271,9.81362712 C21.2636271,9.71362712 21.2636271,9.71362712 21.3636271,9.81362712 Z"></path>
                                <path d="M21.8636271,9.51362712 C21.8636271,9.51362712 21.8636271,9.41362712 21.9636271,9.41362712 L21.8636271,9.51362712 C22.0636271,9.41362712 21.9636271,9.51362712 21.8636271,9.51362712 Z"></path>
                                <path d="M25.9636271,7.61362712 L26.1636271,7.71362712 C26.0636271,7.71362712 25.9636271,7.71362712 25.9636271,7.61362712 Z"></path>
                                <path d="M21.0636271,9.71362712 C21.1636271,9.71362712 21.1636271,9.71362712 21.2636271,9.71362712 C21.1636271,9.71362712 21.0636271,9.81362712 21.0636271,9.71362712 Z"></path>
                                <path d="M17.6636271,15.2136271 C17.7636271,15.3136271 17.7636271,15.3136271 17.6636271,15.2136271 C17.7636271,15.3136271 17.7636271,15.3136271 17.6636271,15.2136271 Z"></path>
                                <path d="M9.26362712,20.8136271 C9.16362712,20.8136271 9.16362712,20.8136271 9.06362712,20.8136271 C9.16362712,20.7136271 9.26362712,20.8136271 9.26362712,20.8136271 Z"></path>
                                <path d="M20.7636271,11.6136271 C21.2636271,12.0136271 20.9636271,11.4136271 21.4636271,11.8136271 C21.2636271,11.8136271 21.1636271,11.9136271 21.3636271,12.1136271 C21.7636271,12.2136271 21.4636271,11.8136271 21.9636271,12.1136271 L21.6636271,12.2136271 C21.8636271,12.5136271 22.2636271,12.6136271 22.1636271,12.6136271 C21.4636271,12.3136271 22.0636271,13.3136271 21.8636271,13.4136271 L21.9636271,13.4136271 L22.0636271,13.9136271 C22.0636271,13.9136271 22.0636271,13.9136271 22.0636271,13.9136271 C22.0636271,13.9136271 21.9636271,13.9136271 21.9636271,13.8136271 C22.1636271,14.1136271 22.2636271,14.5136271 22.0636271,14.7136271 C21.6636271,14.5136271 21.3636271,15.3136271 21.0636271,15.1136271 C21.2636271,15.1136271 21.2636271,15.0136271 21.2636271,14.8136271 L20.8636271,14.5136271 C20.6636271,14.7136271 21.2636271,14.8136271 20.8636271,14.8136271 C20.3636271,14.3136271 21.0636271,14.5136271 21.1636271,14.3136271 C20.9636271,14.2136271 20.8636271,14.2136271 20.6636271,14.3136271 C20.8636271,14.0136271 20.8636271,13.6136271 21.5636271,13.9136271 C21.4636271,13.7136271 21.2636271,13.6136271 21.1636271,13.6136271 C21.6636271,13.7136271 20.9636271,13.2136271 21.3636271,13.3136271 C20.7636271,13.0136271 20.7636271,13.5136271 20.3636271,13.4136271 C20.5636271,14.0136271 19.9636271,14.0136271 19.6636271,14.2136271 C20.0636271,14.5136271 20.4636271,14.6136271 20.6636271,14.9136271 C20.6636271,15.4136271 20.2636271,15.0136271 19.8636271,15.0136271 C19.8636271,15.3136271 20.4636271,15.6136271 20.2636271,15.9136271 L20.6636271,15.9136271 C21.0636271,16.6136271 20.2636271,15.9136271 20.2636271,16.1136271 C20.1636271,15.9136271 20.0636271,15.8136271 20.1636271,15.7136271 C19.9636271,15.5136271 19.7636271,15.6136271 19.7636271,15.6136271 L19.7636271,15.5136271 C19.4636271,15.3136271 19.1636271,15.1136271 19.1636271,15.4136271 C19.5636271,15.6136271 19.2636271,15.8136271 19.3636271,15.9136271 L19.4636271,15.9136271 C19.2636271,15.9136271 19.1636271,16.1136271 18.9636271,16.1136271 L19.0636271,16.2136271 C18.8636271,16.2136271 18.4636271,15.8136271 18.3636271,16.1136271 C18.5636271,16.2136271 19.0636271,16.5136271 18.8636271,16.6136271 C19.0636271,16.8136271 19.2636271,16.7136271 19.3636271,16.4136271 C19.2636271,16.6136271 19.5636271,17.1136271 19.7636271,16.9136271 C19.9636271,17.2136271 19.4636271,16.9136271 19.4636271,17.2136271 C19.3636271,17.1136271 19.2636271,17.0136271 19.1636271,16.9136271 C19.5636271,17.3136271 18.8636271,17.3136271 18.5636271,17.0136271 L18.9636271,17.0136271 C18.6636271,16.7136271 18.2636271,16.7136271 18.1636271,16.4136271 C18.5636271,17.0136271 17.4636271,16.6136271 17.7636271,17.1136271 L17.5636271,16.8136271 C17.3636271,17.3136271 16.5636271,16.9136271 16.0636271,17.1136271 C16.3636271,17.2136271 16.7636271,17.7136271 16.8636271,17.4136271 C16.5636271,17.8136271 17.1636271,18.1136271 17.2636271,18.4136271 C17.1636271,18.8136271 16.6636271,18.0136271 16.4636271,17.9136271 L16.7636271,17.9136271 C15.9636271,17.4136271 16.0636271,18.6136271 15.3636271,18.5136271 C15.4636271,18.7136271 15.5636271,18.5136271 15.6636271,18.6136271 C15.7636271,19.1136271 15.4636271,18.7136271 15.2636271,18.6136271 C15.1636271,18.8136271 14.9636271,19.1136271 15.3636271,19.5136271 C15.2636271,19.8136271 15.1636271,19.2136271 14.9636271,19.1136271 L14.9636271,19.2136271 C14.7636271,19.1136271 14.5636271,19.0136271 14.4636271,18.8136271 C14.3636271,19.1136271 14.2636271,19.4136271 14.4636271,19.9136271 C13.9636271,20.1136271 13.6636271,18.9136271 13.2636271,18.9136271 C13.2636271,19.2136271 13.4636271,19.2136271 13.6636271,19.4136271 L13.3636271,19.5136271 C13.7636271,20.0136271 13.8636271,19.6136271 14.1636271,20.2136271 C13.5636271,19.7136271 13.7636271,20.2136271 13.1636271,20.0136271 L13.1636271,19.9136271 C12.7636271,19.6136271 12.5636271,20.0136271 12.3636271,20.1136271 C12.5636271,20.3136271 12.7636271,20.2136271 12.9636271,20.2136271 C12.8636271,20.5136271 12.1636271,20.6136271 11.7636271,20.2136271 C11.6636271,20.4136271 11.4636271,20.7136271 11.7636271,20.8136271 C11.3636271,21.1136271 11.1636271,20.1136271 10.8636271,20.4136271 L11.0636271,20.8136271 C10.8636271,21.6136271 9.96362712,20.6136271 9.76362712,21.3136271 L9.56362712,20.8136271 C9.56362712,21.1136271 9.46362712,21.2136271 9.46362712,21.5136271 L9.76362712,21.6136271 C9.76362712,22.1136271 9.36362712,21.2136271 9.26362712,21.7136271 C9.16362712,21.5136271 9.26362712,21.1136271 9.16362712,20.9136271 C10.1636271,20.9136271 10.7636271,19.8136271 11.7636271,19.9136271 C11.7636271,20.0136271 11.7636271,20.1136271 11.8636271,20.2136271 C11.8636271,20.0136271 12.1636271,20.1136271 11.9636271,19.8136271 L11.9636271,19.8136271 C12.2636271,19.8136271 12.1636271,19.1136271 12.2636271,19.0136271 C12.5636271,19.3136271 12.6636271,18.6136271 12.8636271,19.3136271 L12.7636271,18.9136271 C12.9636271,19.1136271 13.0636271,19.4136271 13.1636271,19.5136271 C13.2636271,19.4136271 13.1636271,19.1136271 12.9636271,19.1136271 C13.3636271,18.6136271 14.0636271,18.3136271 14.7636271,18.1136271 L14.4636271,17.9136271 C14.4636271,17.7136271 15.2636271,18.0136271 14.6636271,17.4136271 C15.0636271,17.5136271 15.2636271,16.7136271 15.7636271,17.4136271 C15.4636271,16.6136271 16.1636271,16.7136271 16.5636271,16.5136271 C16.9636271,17.1136271 16.9636271,16.4136271 17.2636271,16.6136271 C16.9636271,16.1136271 16.6636271,16.4136271 16.3636271,16.1136271 C17.2636271,16.4136271 16.8636271,14.8136271 17.9636271,15.7136271 C17.9636271,15.6136271 17.9636271,15.6136271 17.8636271,15.6136271 C17.9636271,15.5136271 17.8636271,15.3136271 17.8636271,15.2136271 C18.0636271,15.3136271 18.0636271,15.6136271 18.2636271,15.5136271 C18.3636271,15.3136271 17.9636271,15.1136271 17.9636271,15.0136271 C18.4636271,15.0136271 18.8636271,14.7136271 19.3636271,15.1136271 C19.2636271,14.9136271 19.1636271,14.6136271 18.9636271,14.6136271 C19.6636271,14.5136271 19.1636271,14.2136271 19.7636271,14.0136271 C19.6636271,14.1136271 19.2636271,13.7136271 19.2636271,14.0136271 C18.7636271,13.3136271 19.8636271,13.5136271 19.7636271,12.9136271 L20.2636271,13.1136271 C20.4636271,13.0136271 20.0636271,12.6136271 19.8636271,12.7136271 C19.8636271,12.2136271 20.1636271,12.2136271 20.3636271,11.9136271 C20.3636271,11.8136271 20.2636271,11.8136271 20.2636271,11.9136271 L20.4636271,11.5136271 C20.5636271,11.5136271 20.8636271,11.5136271 21.1636271,11.7136271 C20.9636271,11.3136271 20.7636271,11.3136271 20.7636271,11.6136271 Z"></path>
                                <path d="M20.2636271,16.3136271 C20.1636271,16.2136271 20.1636271,16.1136271 20.1636271,16.1136271 C20.2636271,16.1136271 20.2636271,16.2136271 20.2636271,16.3136271 Z"></path>
                                <path d="M24.0636271,7.81362712 C24.7636271,8.21362712 23.8636271,8.01362712 23.9636271,8.31362712 C24.1636271,8.21362712 24.5636271,8.41362712 24.7636271,8.51362712 C23.7636271,8.31362712 24.8636271,8.91362712 24.4636271,9.21362712 C24.7636271,9.31362712 24.8636271,9.21362712 25.2636271,9.31362712 C24.9636271,9.41362712 24.6636271,9.81362712 24.0636271,9.61362712 C23.8636271,10.0136271 23.8636271,10.4136271 23.6636271,10.6136271 C24.0636271,10.4136271 24.1636271,10.8136271 24.7636271,10.8136271 C24.0636271,10.8136271 22.9636271,11.1136271 22.0636271,11.1136271 C22.5636271,11.5136271 22.5636271,11.5136271 23.1636271,11.8136271 C23.2636271,12.5136271 22.5636271,11.6136271 22.4636271,12.1136271 L22.4636271,11.8136271 C22.1636271,11.9136271 21.6636271,11.6136271 21.2636271,11.4136271 L21.6636271,11.0136271 C21.2636271,10.8136271 21.1636271,11.1136271 20.9636271,11.1136271 C20.4636271,11.0136271 20.8636271,10.7136271 20.4636271,10.5136271 C20.7636271,10.6136271 20.8636271,10.4136271 21.0636271,10.3136271 L20.8636271,10.2136271 C20.7636271,9.91362712 21.3636271,10.0136271 21.4636271,9.81362712 C21.4636271,9.81362712 21.3636271,9.71362712 21.3636271,9.71362712 C21.6636271,9.81362712 21.9636271,9.81362712 22.0636271,9.81362712 L21.9636271,9.91362712 C22.5636271,10.0136271 23.0636271,9.71362712 23.4636271,10.3136271 L23.5636271,9.71362712 C22.9636271,9.51362712 22.1636271,9.21362712 21.8636271,9.41362712 L21.6636271,9.31362712 C21.4636271,8.91362712 22.3636271,8.91362712 22.7636271,9.31362712 C24.1636271,9.71362712 23.1636271,8.51362712 23.8636271,8.41362712 C23.5636271,8.21362712 23.2636271,8.41362712 22.9636271,8.41362712 C22.8636271,8.51362712 22.8636271,8.61362712 23.1636271,8.71362712 C22.7636271,9.11362712 22.0636271,8.11362712 21.9636271,8.71362712 C21.9636271,9.01362712 22.6636271,8.71362712 22.5636271,9.11362712 L21.4636271,8.91362712 C21.5636271,8.71362712 21.8636271,8.61362712 22.0636271,8.41362712 C22.6636271,8.01362712 22.8636271,7.51362712 22.9636271,7.21362712 C23.0636271,6.91362712 22.9636271,6.61362712 22.9636271,6.61362712 C23.6636271,5.01362712 24.1636271,3.31362712 24.5636271,1.61362712 C24.7636271,1.11362712 24.7636271,0.913627124 25.8636271,0.813627124 C26.0636271,0.913627124 25.9636271,1.31362712 26.3636271,1.21362712 C25.9636271,1.21362712 25.7636271,1.41362712 25.7636271,1.71362712 C26.1636271,1.81362712 25.9636271,1.51362712 26.0636271,1.51362712 L26.0636271,1.61362712 C26.2636271,1.61362712 26.3636271,1.61362712 26.4636271,1.51362712 C26.9636271,1.91362712 26.7636271,2.61362712 25.9636271,2.71362712 C26.2636271,3.01362712 26.5636271,2.61362712 26.9636271,2.51362712 C27.0636271,3.51362712 26.8636271,4.21362712 26.6636271,5.21362712 C25.9636271,5.01362712 26.1636271,5.21362712 25.7636271,5.21362712 L25.9636271,5.41362712 C25.8636271,5.31362712 25.3636271,5.31362712 25.2636271,5.11362712 C25.6636271,5.81362712 24.1636271,5.51362712 23.7636271,5.71362712 L24.1636271,5.81362712 C23.9636271,6.11362712 23.9636271,6.21362712 23.6636271,6.31362712 C24.1636271,7.01362712 23.8636271,5.91362712 24.6636271,6.31362712 L24.4636271,6.41362712 C24.7636271,6.41362712 25.3636271,6.51362712 25.6636271,6.41362712 C24.9636271,6.71362712 25.6636271,7.21362712 25.0636271,7.51362712 C25.4636271,7.61362712 25.8636271,7.21362712 25.9636271,7.11362712 C25.9636271,7.31362712 25.5636271,7.51362712 25.8636271,7.71362712 L25.3636271,7.61362712 C25.1636271,7.91362712 25.8636271,7.71362712 26.0636271,7.91362712 C25.8636271,8.51362712 24.6636271,7.41362712 24.0636271,7.81362712 Z"></path>
                                <path d="M20.4636271,14.5136271 C20.4636271,14.4136271 20.5636271,14.4136271 20.6636271,14.3136271 C20.5636271,14.4136271 20.5636271,14.4136271 20.4636271,14.5136271 Z"></path>
                                <path d="M22.1636271,13.9136271 C22.2636271,13.9136271 22.2636271,14.0136271 22.3636271,14.0136271 C22.2636271,13.9136271 22.2636271,13.9136271 22.1636271,13.9136271 Z"></path>
                                <path d="M22.8636271,14.1136271 C22.6636271,13.9136271 22.6636271,14.0136271 22.3636271,13.9136271 C22.5636271,14.0136271 22.6636271,13.7136271 22.8636271,14.1136271 Z"></path>
                                <path d="M0.563627124,25.2136271 C0.463627124,25.1136271 0.263627124,24.9136271 0.363627124,24.8136271 L0.663627124,24.9136271 L0.563627124,25.2136271 Z"></path>
                                <path d="M1.16362712,24.6136271 L1.46362712,24.4136271 L1.76362712,25.1136271 C1.36362712,25.0136271 1.46362712,24.5136271 1.16362712,24.6136271 Z"></path>
                                <path d="M1.96362712,24.1136271 L1.86362712,23.9136271 C1.86362712,24.0136271 1.96362712,24.0136271 1.96362712,24.1136271 Z"></path>
                                <path d="M1.96362712,24.4136271 L2.16362712,24.9136271 L1.76362712,24.6136271 L1.86362712,24.5136271 C1.86362712,24.3136271 1.96362712,24.2136271 1.96362712,24.2136271 L2.16362712,24.5136271 C2.06362712,24.4136271 1.96362712,24.3136271 1.96362712,24.4136271 Z"></path>
                                <path d="M2.26362712,24.4136271 C2.26362712,24.5136271 2.26362712,24.5136271 2.26362712,24.6136271 C2.26362712,24.4136271 2.26362712,24.4136271 2.26362712,24.4136271 Z"></path>
                                <path d="M2.86362712,23.3136271 C2.86362712,23.5136271 2.96362712,23.7136271 3.06362712,23.9136271 C2.76362712,24.1136271 2.66362712,23.4136271 2.46362712,23.7136271 C2.86362712,24.0136271 2.36362712,24.0136271 2.26362712,24.3136271 C2.26362712,23.8136271 2.36362712,23.5136271 2.66362712,23.3136271 L2.76362712,23.6136271 C2.86362712,23.7136271 2.76362712,23.5136271 2.86362712,23.3136271 Z"></path>
                                <path d="M4.46362712,23.9136271 L4.16362712,23.5136271 C4.16362712,23.7136271 3.76362712,23.8136271 3.86362712,24.2136271 C3.76362712,24.2136271 3.66362712,23.9136271 3.56362712,23.8136271 C3.46362712,24.1136271 3.46362712,24.2136271 3.26362712,23.9136271 C3.76362712,23.5136271 3.56362712,23.4136271 4.06362712,23.2136271 C4.06362712,23.1136271 3.96362712,23.1136271 3.96362712,23.2136271 L4.26362712,22.9136271 C4.36362712,23.5136271 4.76362712,23.5136271 4.46362712,23.9136271 Z"></path>
                                <path d="M4.86362712,23.5136271 C4.66362712,23.5136271 4.36362712,23.1136271 4.46362712,22.8136271 C4.66362712,22.9136271 4.86362712,23.0136271 5.06362712,23.1136271 C4.96362712,23.1136271 4.76362712,23.1136271 4.86362712,23.5136271 Z"></path>
                                <path d="M5.26362712,23.4136271 C5.26362712,23.1136271 5.36362712,22.6136271 5.66362712,23.0136271 C5.36362712,23.0136271 5.56362712,23.7136271 5.26362712,23.4136271 Z"></path>
                                <path d="M6.86362712,22.5136271 L6.46362712,22.9136271 C6.56362712,23.5136271 6.76362712,23.0136271 6.96362712,23.3136271 C6.56362712,23.5136271 6.66362712,23.3136271 6.26362712,23.0136271 C6.16362712,23.1136271 5.86362712,22.8136271 5.76362712,22.7136271 C6.46362712,23.0136271 6.16362712,21.6136271 6.86362712,22.5136271 Z"></path>
                                <polygon points="6.06362712 23.4136271 5.96362712 23.1136271 6.26362712 23.3136271"></polygon>
                                <path d="M7.86362712,21.6136271 C7.96362712,20.8136271 8.56362712,21.9136271 8.76362712,21.5136271 C8.76362712,21.5136271 8.76362712,21.4136271 8.66362712,21.3136271 L8.96362712,21.3136271 L8.96362712,21.1136271 C9.06362712,21.5136271 9.36362712,21.6136271 9.66362712,21.8136271 C9.56362712,22.3136271 9.36362712,21.3136271 9.26362712,21.9136271 C9.36362712,22.1136271 9.56362712,22.3136271 9.66362712,22.5136271 C9.46362712,22.4136271 9.26362712,22.1136271 9.16362712,21.9136271 C8.96362712,21.9136271 9.06362712,22.1136271 9.16362712,22.3136271 C8.86362712,22.1136271 8.66362712,21.5136271 8.46362712,21.7136271 C8.36362712,22.1136271 8.76362712,22.2136271 8.36362712,22.2136271 C8.36362712,21.5136271 8.06362712,22.4136271 7.76362712,22.0136271 C7.56362712,22.2136271 7.46362712,22.6136271 7.56362712,22.9136271 C7.46362712,22.4136271 7.06362712,22.0136271 6.86362712,21.9136271 L7.36362712,22.2136271 L7.36362712,21.6136271 C7.46362712,21.9136271 7.66362712,21.8136271 7.86362712,21.6136271 L7.86362712,21.6136271 Z"></path>
                                <path d="M9.46362712,22.6136271 C9.46362712,22.6136271 9.56362712,22.7136271 9.56362712,22.7136271 C9.56362712,22.7136271 9.46362712,22.6136271 9.46362712,22.6136271 Z"></path>
                                <polygon points="7.36362712 23.2136271 7.46362712 23.3136271 7.46362712 23.4136271"></polygon>
                                <path d="M9.76362712,22.9136271 C9.66362712,22.9136271 9.66362712,22.8136271 9.66362712,22.7136271 L9.76362712,22.9136271 L9.76362712,22.9136271 Z"></path>
                                <polygon points="9.86362712 22.4136271 9.96362712 22.0136271 10.0636271 22.3136271"></polygon>
                                <path d="M15.2636271,19.5136271 C15.2636271,19.8136271 14.9636271,19.4136271 14.7636271,19.2136271 C14.9636271,18.9136271 14.9636271,19.5136271 15.2636271,19.5136271 Z"></path>
                                <path d="M18.6636271,17.6136271 C18.6636271,18.0136271 18.2636271,17.8136271 18.0636271,17.9136271 C18.0636271,17.6136271 18.3636271,17.6136271 18.6636271,17.6136271 Z"></path>
                                <path d="M20.8636271,17.5136271 C20.7636271,17.4136271 20.6636271,17.4136271 20.6636271,17.3136271 L19.9636271,16.9136271 C20.0636271,16.5136271 20.6636271,17.2136271 20.8636271,17.5136271 Z"></path>
                                <path d="M22.2636271,16.1136271 L21.8636271,16.2136271 L21.9636271,16.1136271 C21.6636271,16.0136271 21.5636271,15.9136271 21.2636271,15.8136271 C21.5636271,15.7136271 21.8636271,15.7136271 22.2636271,16.1136271 Z"></path>
                                <path d="M20.9636271,15.8136271 C20.9636271,15.8136271 21.0636271,15.8136271 21.0636271,15.7136271 C21.1636271,15.9136271 21.1636271,16.0136271 20.9636271,15.8136271 Z"></path>
                                <path d="M21.1636271,15.7136271 C21.1636271,15.7136271 21.2636271,15.7136271 21.1636271,15.7136271 C21.1636271,15.7136271 21.1636271,15.8136271 21.1636271,15.7136271 C21.0636271,15.7136271 21.0636271,15.7136271 21.1636271,15.7136271 Z"></path>
                                <path d="M22.1636271,15.6136271 L22.5636271,15.2136271 L22.5636271,15.5136271 C22.1636271,15.3136271 22.5636271,15.9136271 22.1636271,15.6136271 Z"></path>
                                <path d="M23.5636271,13.1136271 L23.1636271,12.8136271 C23.2636271,12.5136271 24.3636271,12.6136271 23.8636271,12.1136271 C24.0636271,12.4136271 24.4636271,12.1136271 24.3636271,12.5136271 C23.8636271,12.4136271 23.5636271,12.8136271 23.5636271,13.1136271 Z"></path>
                                <path d="M23.6636271,11.7136271 C23.5636271,11.7136271 23.4636271,11.6136271 23.3636271,11.5136271 C23.3636271,11.4136271 23.6636271,11.4136271 23.7636271,11.5136271 C23.1636271,11.2136271 23.9636271,11.8136271 23.6636271,11.7136271 Z"></path>
                                <path d="M24.3636271,10.3136271 C24.2636271,10.4136271 24.1636271,10.5136271 24.1636271,10.3136271 C24.3636271,10.1136271 24.7636271,10.4136271 25.0636271,10.4136271 C25.2636271,10.7136271 24.5636271,10.6136271 24.3636271,10.3136271 Z"></path>
                                <path d="M22.1636271,7.01362712 C22.5636271,7.21362712 22.3636271,7.31362712 22.2636271,7.31362712 C22.3636271,7.31362712 22.2636271,7.11362712 22.1636271,7.01362712 Z"></path>
                                <polygon points="25.2636271 8.11362712 25.2636271 8.21362712 24.7636271 8.11362712"></polygon>
                                <polygon points="26.1636271 6.61362712 26.5636271 6.51362712 26.4636271 6.81362712"></polygon>
                                <path d="M26.1636271,6.21362712 L26.2636271,5.91362712 L26.3636271,6.01362712 C26.4636271,6.31362712 26.1636271,6.11362712 26.1636271,6.21362712 Z"></path>
                                <path d="M26.4636271,5.41362712 C26.4636271,5.41362712 26.4636271,5.51362712 26.5636271,5.51362712 L26.2636271,5.71362712 L26.4636271,5.41362712 Z"></path>
                                <path d="M24.8636271,0.613627124 C24.4636271,0.613627124 24.7636271,0.413627124 24.6636271,0.413627124 C24.7636271,0.313627124 25.2636271,0.513627124 24.8636271,0.613627124 Z"></path>
                            </g>
                        </g>
                        <g transform="translate(54.633306, 36.360744)" fill-rule="nonzero">
                            <path d="M0.13137085,5.65251464 C-0.0686291501,5.15251464 -0.0686291501,4.55251464 0.33137085,4.15251464 C1.43137085,2.75251464 4.23137085,-0.447485364 7.43137085,0.0525146363 C11.1313708,0.652514636 13.5313708,5.05251464 13.4313708,6.25251464 C13.2313708,7.95251464 10.3313708,11.4525146 6.33137085,11.3525146 C3.13137085,11.4525146 0.93137085,7.35251464 0.13137085,5.65251464 Z" id="Path" fill="#9BBEDC"></path>
                            <ellipse id="Oval" fill="#1B1C1E" transform="translate(6.778491, 5.569755) rotate(-83.857844) translate(-6.778491, -5.569755) " cx="6.77849085" cy="5.56975464" rx="4.3001752" ry="3.20013038"></ellipse>
                        </g>
                    </g>
                </g>
            </g>
        </g>
    </g>
</svg>