<?xml version="1.0" encoding="UTF-8"?>
<svg id="Calque_2" data-name="Calque 2" xmlns="http://www.w3.org/2000/svg" viewBox="0 0 49 59.01">
  <defs>
    <style>
      .cls-1 {
        stroke-linejoin: round;
      }

      .cls-1, .cls-2, .cls-3 {
        fill: none;
        stroke: #1c1c1c;
        stroke-width: 2px;
      }

      .cls-2, .cls-3 {
        stroke-miterlimit: 10;
      }

      .cls-3 {
        stroke-linecap: round;
      }
    </style>
  </defs>
  <g id="Icon_and_text" data-name="Icon and text">
    <g>
      <line class="cls-3" x1="9" y1="12" x2="9" y2="10"/>
      <path class="cls-1" d="M23,24c0-9.38-.98-13.35-3-17C17.11,1.78,13,1,13,1v5h-3c-2,0-5,1-5,5h-3s-1,.04-1,3,1.32,5,4,5c3,0,6,1,4.36,5.09-1.19,2.98-2.36,5.63-2.36,12.91,0,5,.78,6.53,1.94,12,1.06,5,.06,9,.06,9H3"/>
      <path class="cls-2" d="M49,31s-11,0-4.36,14.05c6.55,13.86-7.64,12.95-7.64,12.95v-12c0-18.95-14-11.37-14-22"/>
      <path class="cls-1" d="M27,41s-15,0-6.64,17.06"/>
      <line class="cls-1" x1="32" y1="58" x2="14.42" y2="58"/>
      <path class="cls-1" d="M9.09,24.78s2.91,1.22,6.91,1.22c5,0,7-2,7-2"/>
    </g>
  </g>
</svg>