<?xml version="1.0" encoding="UTF-8"?>
<svg id="Calque_2" data-name="Calque 2" xmlns="http://www.w3.org/2000/svg" viewBox="0 0 58.05 63">
  <defs>
    <style>
      .cls-1 {
        stroke-linejoin: round;
      }

      .cls-1, .cls-2 {
        fill: none;
        stroke: #1c1c1c;
        stroke-width: 2px;
      }

      .cls-2 {
        stroke-linecap: round;
        stroke-miterlimit: 10;
      }
    </style>
  </defs>
  <g id="Icon_and_text" data-name="Icon and text">
    <g>
      <path class="cls-1" d="M19.05,8s0,12,6,12c3,0,6.44-1.02,6-5C30.05,6,23.05,1,20.05,1h-4c-5.93,0-7,6-7,6l-8,1S.05,16,7.05,16s6.62,3.74,6.62,6.87-2.62,7.13-2.62,12.13c0,9,1.9,9.52,3,15,1,5,0,12,0,12h-6"/>
      <path class="cls-1" d="M46.05,36s11,0,11,13-14,13-14,13v-3c0-20.95-15-29.37-15-40"/>
      <line class="cls-2" x1="14.05" y1="8" x2="14.05" y2="6"/>
      <path class="cls-1" d="M26.05,62c-8-20,6-20,6-20"/>
      <path class="cls-1" d="M13.05,25s2,1,8,1,8-2,8-2"/>
      <line class="cls-1" x1="19.05" y1="62" x2="38.05" y2="62"/>
    </g>
  </g>
</svg>