<?xml version="1.0" encoding="UTF-8"?>
<svg width="219px" height="212px" viewBox="0 0 219 212" version="1.1" xmlns="http://www.w3.org/2000/svg" xmlns:xlink="http://www.w3.org/1999/xlink">
    <title>Group</title>
    <g id="Page-1" stroke="none" stroke-width="1" fill="none" fill-rule="evenodd">
        <g id="DrawKit-Vector-Illustration-Animal-&amp;-Pets-(20)" transform="translate(-146.200000, -87.400000)">
            <g id="Group" transform="translate(147.114346, 87.575429)">
                <path d="M17.1856539,207.024571 C17.1856539,207.024571 8.38565394,209.624571 32.3856539,210.424571 C56.3856539,211.224571 182.985654,211.624571 195.985654,210.424571 C208.985654,209.224571 234.385654,209.924571 200.685654,207.024571 C166.985654,204.124571 132.385654,205.824571 98.4856539,204.124571 C64.6856539,202.424571 22.2856539,204.024571 17.1856539,207.024571 Z" id="Path" fill="#1B1C1E" fill-rule="nonzero"></path>
                <g transform="translate(0.000000, 0.000000)">
                    <path d="M157.885654,192.224571 C157.885654,192.224571 165.885654,203.524571 184.485654,201.224571 C204.585654,198.724571 219.485654,174.924571 215.085654,150.824571 C210.685654,126.724571 185.385654,120.424571 171.085654,128.824571 C156.785654,137.224571 155.985654,150.824571 160.785654,161.624571 C160.685654,161.524571 156.285654,188.124571 157.885654,192.224571 Z" id="Path" fill="#FBAF5E" fill-rule="nonzero"></path>
                    <path d="M160.685654,161.524571 C160.685654,161.524571 166.585654,172.024571 180.085654,169.724571 C193.485654,167.424571 192.185654,150.724571 185.585654,147.924571" id="Path" stroke="#1B1C1E" stroke-width="1.2604" stroke-linecap="round" stroke-linejoin="round"></path>
                    <g transform="translate(153.420934, 162.574571)" fill="#322015" fill-rule="nonzero" id="Path">
                        <path d="M6.76471971,30.05 C6.86471971,29.95 6.86471971,29.75 6.96471971,29.65 C7.06471971,29.75 7.06471971,29.85 6.76471971,30.05 Z"></path>
                        <path d="M17.6647197,38.25 C17.6647197,38.25 17.6647197,38.35 17.6647197,38.25 L17.6647197,38.35 L17.6647197,38.25 Z"></path>
                        <path d="M17.6647197,38.45 L17.5647197,38.95 C17.4647197,38.65 17.4647197,38.55 17.6647197,38.45 Z"></path>
                        <path d="M9.06471971,27.35 C9.06471971,27.15 9.16471971,27.05 9.46471971,26.75 L9.06471971,27.35 Z"></path>
                        <path d="M11.3647197,27.25 C11.4647197,27.25 11.5647197,27.15 11.5647197,27.15 C11.4647197,27.25 11.4647197,27.25 11.3647197,27.25 Z"></path>
                        <path d="M1.46471971,18.55 C1.36471971,18.55 1.36471971,18.65 1.26471971,18.65 C1.36471971,18.55 1.36471971,18.55 1.46471971,18.55 Z"></path>
                        <path d="M2.16471971,17.55 C2.16471971,17.45 2.16471971,17.45 2.16471971,17.35 L2.26471971,17.35 C2.36471971,17.25 2.16471971,17.45 2.16471971,17.55 Z"></path>
                        <path d="M2.76471971,17.75 L2.76471971,17.55 C2.86471971,17.65 2.86471971,17.75 2.76471971,17.75 Z"></path>
                        <path d="M8.26471971,11.75 L8.76471971,11.75 C8.56471971,11.75 8.36471971,11.75 8.26471971,11.75 Z"></path>
                        <path d="M0.864719713,18.85 C0.964719713,18.75 1.06471971,18.75 1.26471971,18.65 C1.16471971,18.75 1.16471971,18.85 0.864719713,18.85 Z"></path>
                        <path d="M6.66471971,30.15 C6.76471971,30.05 6.76471971,30.05 6.86471971,30.05 C6.76471971,30.15 6.66471971,30.15 6.66471971,30.15 Z"></path>
                        <path d="M8.56471971,26.65 L8.56471971,26.65 C8.56471971,26.75 8.56471971,26.75 8.56471971,26.65 Z"></path>
                        <path d="M22.2647197,40.25 C22.3647197,40.35 22.4647197,40.45 22.5647197,40.55 C22.2647197,40.65 22.1647197,40.45 22.2647197,40.25 Z"></path>
                        <path d="M3.16471971,21.75 C4.66471971,21.55 3.16471971,21.25 4.46471971,20.95 C4.16471971,21.25 4.06471971,21.55 4.76471971,21.45 C5.46471971,21.05 4.56471971,20.95 5.76471971,20.65 L5.36471971,21.15 C5.96471971,21.25 6.86471971,20.65 6.86471971,20.95 C5.26471971,21.65 7.76471971,21.75 7.56471971,22.05 L7.66471971,21.85 C7.96471971,21.95 8.26471971,22.05 8.56471971,22.05 C8.56471971,22.05 8.66471971,22.05 8.66471971,22.05 C8.56471971,22.05 8.46471971,22.15 8.36471971,22.15 C9.26471971,22.05 9.86471971,22.25 9.86471971,22.65 C8.96471971,23.15 9.96471971,23.85 9.26471971,24.35 C9.46471971,24.15 9.36471971,23.95 9.06471971,23.85 L7.96471971,24.25 C8.16471971,24.55 8.96471971,23.85 8.46471971,24.45 C6.96471971,24.95 8.26471971,23.95 7.96471971,23.75 C7.66471971,23.95 7.46471971,24.25 7.36471971,24.45 C7.06471971,23.95 6.46471971,23.65 7.76471971,22.75 C7.36471971,22.75 6.76471971,22.95 6.66471971,23.15 C7.36471971,22.45 5.76471971,23.15 6.36471971,22.55 C5.06471971,23.05 5.86471971,23.55 5.26471971,24.15 C6.46471971,24.25 5.76471971,25.25 5.76471971,25.95 C6.76471971,25.55 7.46471971,24.85 8.06471971,24.75 C8.96471971,24.95 7.76471971,25.45 7.36471971,26.05 C7.86471971,26.25 8.96471971,25.35 9.36471971,25.85 L9.86471971,25.25 C11.3647197,24.85 9.46471971,25.75 9.86471971,25.85 C9.46471971,25.95 9.16471971,26.15 9.06471971,25.85 C8.56471971,26.05 8.46471971,26.35 8.46471971,26.55 L8.36471971,26.55 C7.76471971,27.05 7.06471971,27.45 7.56471971,27.65 C8.26471971,27.05 8.26471971,27.65 8.76471971,27.45 L8.86471971,27.25 C8.76471971,27.65 9.06471971,27.85 8.96471971,28.05 L9.16471971,27.95 C8.96471971,28.35 8.06471971,28.95 8.46471971,29.15 C8.86471971,28.85 9.66471971,27.95 9.66471971,28.35 C10.1647197,27.95 10.0647197,27.55 9.66471971,27.45 C10.0647197,27.55 11.0647197,27.15 10.9647197,26.75 C11.7647197,26.35 10.8647197,27.25 11.2647197,27.15 C11.0647197,27.25 10.7647197,27.45 10.5647197,27.55 C11.5647197,26.95 11.0647197,28.05 10.3647197,28.55 L10.6647197,27.85 C9.86471971,28.35 9.66471971,29.05 9.16471971,29.25 C10.4647197,28.55 9.16471971,30.55 10.2647197,29.95 L9.56471971,30.25 C10.4647197,30.55 9.56471971,32.25 9.86471971,33.15 C9.96471971,32.65 11.1647197,31.55 10.3647197,31.55 C11.0647197,31.95 11.6647197,30.65 12.4647197,30.35 C13.2647197,30.35 11.5647197,31.55 11.3647197,32.05 L11.2647197,31.55 C10.7647197,32.35 11.1647197,32.55 11.5647197,32.75 C11.9647197,32.95 12.4647197,33.05 12.4647197,33.75 C12.8647197,33.45 12.5647197,33.45 12.5647197,33.25 C13.4647197,32.75 12.6647197,33.65 12.6647197,34.05 C13.0647197,34.15 13.6647197,34.15 14.2647197,33.05 C14.7647197,33.05 13.7647197,33.55 13.7647197,34.05 L13.9647197,33.85 C13.7647197,34.25 13.6647197,34.75 13.5647197,35.15 C14.0647197,35.05 14.8647197,34.85 15.5647197,33.95 C16.0647197,34.55 14.3647197,36.35 14.6647197,37.05 C15.2647197,36.75 15.0647197,36.25 15.2647197,35.85 L15.6647197,36.25 C16.1647197,35.05 15.4647197,35.35 16.2647197,34.15 C15.8647197,35.65 16.5647197,34.85 16.5647197,35.95 L16.6647197,36.25 C16.3647197,37.25 17.2647197,36.95 17.5647197,37.35 C17.7647197,36.75 17.3647197,36.55 17.2647197,36.15 C17.8647197,35.95 18.4647197,36.75 18.2647197,38.15 C18.5647197,38.05 19.2647197,37.75 19.1647197,37.15 C19.9647197,37.25 18.7647197,39.05 19.5647197,38.95 L19.9647197,37.95 C21.1647197,36.85 20.9647197,39.75 22.0647197,38.75 L21.7647197,39.95 C22.0647197,39.45 22.4647197,39.35 22.6647197,38.95 L22.4647197,38.45 C23.0647197,37.55 22.5647197,39.55 23.0647197,38.95 C22.9647197,39.35 22.3647197,40.05 22.2647197,40.45 C21.5647197,39.85 20.7647197,39.85 19.8647197,39.75 C19.4647197,39.65 19.0647197,39.65 18.6647197,39.45 C18.2647197,39.25 17.9647197,38.95 17.7647197,38.45 C17.8647197,38.35 18.0647197,38.25 18.0647197,37.95 C17.7647197,38.15 17.6647197,37.75 17.3647197,38.35 L17.3647197,38.45 C17.0647197,38.05 16.0647197,39.15 15.7647197,39.05 C16.0647197,38.25 14.7647197,38.85 15.6647197,37.75 L14.9647197,38.35 C15.1647197,37.85 15.5647197,37.25 15.5647197,36.95 C15.2647197,36.85 14.9647197,37.35 14.9647197,37.85 C14.2647197,37.85 13.6647197,37.45 13.1647197,37.05 C12.6647197,36.65 12.1647197,36.15 11.8647197,35.55 L11.6647197,36.25 C11.1647197,36.35 11.6647197,34.65 10.6647197,36.15 C10.6647197,35.25 9.06471971,35.25 10.3647197,34.05 C9.56471971,34.55 9.16471971,34.35 8.96471971,34.05 C8.76471971,33.65 8.66471971,33.05 8.46471971,32.65 C9.76471971,31.75 8.36471971,31.85 8.86471971,31.25 C7.86471971,31.85 8.26471971,32.55 7.66471971,33.05 C8.06471971,32.15 7.46471971,31.85 7.06471971,31.45 C6.56471971,31.15 6.26471971,30.65 7.46471971,29.75 C7.26471971,29.75 7.16471971,29.75 7.16471971,29.85 C7.06471971,29.75 6.46471971,29.75 6.26471971,29.75 C6.66471971,29.35 7.06471971,29.55 7.06471971,29.15 C6.76471971,28.95 6.16471971,29.55 5.76471971,29.55 C6.06471971,28.65 5.96471971,27.65 6.96471971,27.05 C6.56471971,27.05 5.86471971,27.15 5.76471971,27.45 C6.26471971,26.25 5.26471971,26.65 5.46471971,25.55 C5.56471971,25.85 4.26471971,26.15 4.96471971,26.45 C4.06471971,26.65 3.96471971,26.25 4.06471971,25.75 C4.06471971,25.25 4.16471971,24.75 3.66471971,24.55 L4.66471971,23.95 C4.66471971,23.45 3.66471971,23.75 3.36471971,24.15 C2.46471971,23.55 3.06471971,22.95 2.86471971,22.35 C2.76471971,22.35 2.56471971,22.45 2.56471971,22.55 C2.46471971,22.25 2.36471971,21.95 2.36471971,21.65 C2.66471971,21.45 3.06471971,21.05 3.76471971,20.95 C2.96471971,21.15 2.66471971,21.45 3.16471971,21.75 Z"></path>
                        <path d="M3.56471971,20.95 L3.66471971,20.85 L3.66471971,20.85 C3.66471971,20.95 3.66471971,20.95 3.56471971,20.95 Z"></path>
                        <path d="M10.4647197,25.95 C10.1647197,26.05 10.0647197,26.05 9.96471971,26.05 C10.1647197,25.95 10.3647197,25.95 10.4647197,25.95 Z"></path>
                        <path d="M4.66471971,13.05 C6.36471971,13.15 4.36471971,13.55 4.86471971,13.85 C5.06471971,13.55 6.06471971,13.55 6.56471971,13.55 C4.36471971,14.05 6.96471971,14.05 6.56471971,14.75 C7.26471971,14.75 7.36471971,14.35 8.16471971,14.25 C7.66471971,14.65 7.36471971,15.25 6.16471971,15.45 C6.16471971,16.15 6.66471971,16.55 6.56471971,16.95 C6.96471971,16.45 7.76471971,16.75 8.76471971,16.25 C7.36471971,16.85 5.86471971,18.15 4.26471971,19.25 C5.56471971,19.15 5.76471971,19.15 6.96471971,18.75 C7.96471971,19.35 5.76471971,19.25 6.36471971,19.95 L6.06471971,19.65 C5.76471971,20.05 4.46471971,20.35 3.66471971,20.65 L3.66471971,19.65 C2.76471971,19.85 3.06471971,20.45 2.86471971,20.65 C1.86471971,21.15 1.96471971,20.25 1.16471971,20.55 C1.86471971,20.25 1.56471971,19.85 1.76471971,19.55 L1.26471971,19.55 C0.664719713,19.15 1.86471971,18.65 1.76471971,18.25 C1.66471971,18.25 1.46471971,18.25 1.46471971,18.25 C1.96471971,18.05 2.66471971,17.75 2.86471971,17.45 L2.86471971,17.65 C3.96471971,17.15 4.66471971,16.25 5.96471971,16.65 L5.46471971,15.75 C4.16471971,15.95 2.26471971,16.35 2.16471971,16.95 L1.66471971,17.05 C0.864719713,16.65 2.56471971,15.65 3.66471971,15.85 C6.76471971,15.15 3.66471971,14.35 4.96471971,13.55 C4.06471971,13.55 3.76471971,13.95 3.16471971,14.15 C3.06471971,14.35 3.06471971,14.55 3.76471971,14.55 C3.36471971,15.55 1.06471971,14.55 1.46471971,15.55 C1.96471971,16.05 2.76471971,14.75 2.96471971,15.55 C2.16471971,15.75 1.46471971,16.05 0.664719713,16.35 C0.664719713,15.85 1.06471971,15.35 1.26471971,14.95 C1.96471971,13.75 2.06471971,12.95 1.86471971,12.25 C1.76471971,11.65 1.36471971,11.25 1.36471971,11.25 C1.66471971,8.05 2.16471971,4.95 2.86471971,2.05 C3.36471971,1.15 3.26471971,0.75 5.66471971,0.85 C6.06471971,1.15 5.76471971,1.65 6.66471971,1.55 C5.76471971,1.55 5.26471971,1.75 5.26471971,2.25 C6.06471971,2.45 5.76471971,1.85 5.96471971,2.05 L5.96471971,2.15 C6.36471971,2.15 6.66471971,2.15 6.76471971,1.95 C7.96471971,2.65 7.56471971,3.65 5.86471971,3.75 C6.66471971,4.25 7.26471971,3.65 7.96471971,3.55 C8.46471971,5.15 8.16471971,6.15 8.16471971,7.65 C6.66471971,7.55 7.16471971,7.75 6.16471971,7.85 L6.66471971,8.05 C6.36471971,7.95 5.36471971,8.15 5.06471971,7.75 C6.16471971,8.75 2.96471971,8.65 2.36471971,9.35 L3.16471971,9.35 C2.96471971,9.85 2.96471971,10.05 2.56471971,10.45 C3.96471971,11.35 2.86471971,9.75 4.76471971,10.05 L4.46471971,10.25 C5.16471971,10.15 6.56471971,10.05 7.06471971,9.75 C5.76471971,10.45 7.56471971,10.85 6.56471971,11.65 C7.46471971,11.55 8.06471971,10.85 8.16471971,10.65 C8.26471971,10.95 7.66471971,11.45 8.46471971,11.45 L7.36471971,11.55 C7.26471971,12.05 8.36471971,11.45 9.06471971,11.65 C8.66471971,13.05 5.36471971,12.05 4.66471971,13.05 Z"></path>
                        <path d="M7.56471971,24.95 C7.46471971,24.85 7.46471971,24.75 7.46471971,24.55 C7.56471971,24.65 7.56471971,24.75 7.56471971,24.95 Z"></path>
                        <path d="M8.76471971,22.05 C8.86471971,21.95 9.06471971,21.95 9.16471971,21.85 C9.06471971,21.95 8.86471971,22.05 8.76471971,22.05 Z"></path>
                        <path d="M10.1647197,21.45 C9.66471971,21.55 9.66471971,21.65 9.16471971,21.95 C9.36471971,21.65 9.26471971,21.35 10.1647197,21.45 Z"></path>
                        <path d="M37.4647197,36.55 C37.5647197,36.85 37.8647197,37.15 37.7647197,37.45 L37.2647197,37.05 L37.4647197,36.55 Z"></path>
                        <path d="M36.6647197,37.75 L36.2647197,38.15 L35.9647197,36.65 C36.3647197,36.75 36.1647197,37.75 36.6647197,37.75 Z"></path>
                        <path d="M35.3647197,38.65 L35.4647197,39.05 C35.3647197,38.85 35.3647197,38.75 35.3647197,38.65 Z"></path>
                        <path d="M35.3647197,37.95 L35.1647197,36.85 L35.7647197,37.65 L35.5647197,37.85 C35.5647197,38.25 35.4647197,38.35 35.3647197,38.55 L35.1647197,37.75 C35.2647197,37.95 35.3647197,38.15 35.3647197,37.95 Z"></path>
                        <path d="M34.8647197,37.95 C34.8647197,37.85 34.8647197,37.75 34.8647197,37.65 C34.9647197,37.75 34.9647197,37.85 34.8647197,37.95 Z"></path>
                        <path d="M33.7647197,39.85 C33.8647197,39.45 33.6647197,38.85 33.6647197,38.45 C34.1647197,38.05 34.0647197,39.65 34.4647197,39.15 C33.8647197,38.25 34.6647197,38.55 34.8647197,37.95 C34.7647197,38.95 34.4647197,39.65 34.0647197,39.95 L34.0647197,39.25 C33.7647197,39.15 33.8647197,39.65 33.7647197,39.85 Z"></path>
                        <path d="M31.4647197,38.15 L31.7647197,39.15 C31.8647197,38.65 32.4647197,38.65 32.4647197,37.65 C32.6647197,37.85 32.6647197,38.25 32.7647197,38.55 C32.9647197,38.05 33.0647197,37.65 33.2647197,38.35 C32.3647197,39.05 32.6647197,39.25 31.8647197,39.55 C31.8647197,39.75 31.9647197,39.75 32.0647197,39.75 L31.5647197,40.25 C31.5647197,39.05 30.9647197,38.85 31.4647197,38.15 Z"></path>
                        <path d="M30.7647197,38.85 C31.1647197,38.95 31.2647197,39.95 31.0647197,40.55 L30.2647197,39.65 C30.4647197,39.65 30.7647197,39.85 30.7647197,38.85 Z"></path>
                        <path d="M30.1647197,38.75 C29.9647197,39.25 29.5647197,40.35 29.4647197,39.35 C29.8647197,39.55 29.7647197,38.05 30.1647197,38.75 Z"></path>
                        <path d="M27.2647197,39.35 L28.1647197,38.85 C28.4647197,37.55 27.8647197,38.35 27.7647197,37.75 C28.4647197,37.55 28.1647197,37.95 28.5647197,38.85 C28.7647197,38.75 28.9647197,39.55 29.1647197,39.95 C28.1647197,38.75 27.6647197,41.85 27.2647197,39.35 Z"></path>
                        <polygon points="28.9647197 38.25 28.9647197 38.85 28.6647197 38.35"></polygon>
                        <path d="M25.1647197,40.45 C24.3647197,41.85 24.4647197,39.35 23.7647197,39.95 C23.7647197,40.05 23.7647197,40.15 23.7647197,40.35 L23.3647197,40.05 L23.2647197,40.35 C23.5647197,39.45 23.1647197,38.95 23.1647197,38.25 C23.8647197,37.45 23.0647197,39.45 23.7647197,38.55 C23.7647197,38.15 23.8647197,37.45 23.8647197,37.15 C23.9647197,37.65 23.8647197,38.25 23.8647197,38.75 C24.1647197,38.95 24.1647197,38.35 24.2647197,38.05 C24.4647197,38.65 24.1647197,39.95 24.6647197,39.75 C25.1647197,39.05 24.7647197,38.45 25.2647197,38.95 C24.6647197,40.35 25.8647197,38.85 25.8647197,39.85 C26.3647197,39.65 26.7647197,38.75 26.7647197,38.25 C26.5647197,39.35 26.7647197,40.45 26.9647197,40.75 L26.4647197,39.65 L25.9647197,40.95 C25.6647197,40.25 25.3647197,40.25 24.9647197,40.35 L25.1647197,40.45 Z"></path>
                        <path d="M23.8647197,37.05 C23.8647197,36.95 23.8647197,36.85 23.7647197,36.75 C23.8647197,36.75 23.8647197,36.85 23.8647197,37.05 Z"></path>
                        <polygon points="27.0647197 37.75 26.9647197 37.45 27.1647197 37.15"></polygon>
                        <path d="M23.8647197,36.05 C23.9647197,36.05 23.8647197,36.45 23.7647197,36.45 L23.7647197,35.85 L23.8647197,36.05 Z"></path>
                        <polygon points="23.2647197 36.75 22.7647197 37.45 22.8647197 36.75"></polygon>
                        <path d="M14.7647197,33.45 C15.2647197,33.25 14.6647197,33.95 14.3647197,34.55 C13.8647197,34.35 14.8647197,33.85 14.7647197,33.45 Z"></path>
                        <path d="M11.7647197,28.65 C12.4647197,28.55 11.8647197,29.35 12.0647197,29.55 C11.4647197,29.55 11.4647197,29.05 11.7647197,28.65 Z"></path>
                        <path d="M13.2647197,25.15 C13.0647197,25.35 12.9647197,25.55 12.7647197,25.45 L11.4647197,26.55 C10.7647197,26.35 12.5647197,25.45 13.2647197,25.15 Z"></path>
                        <path d="M12.4647197,22.95 L12.0647197,23.55 L11.9647197,23.35 C11.3647197,23.65 11.1647197,23.85 10.6647197,24.25 C10.8647197,23.85 11.3647197,23.35 12.4647197,22.95 Z"></path>
                        <path d="M10.4647197,24.75 C10.4647197,24.65 10.4647197,24.65 10.4647197,24.55 C10.7647197,24.55 10.9647197,24.45 10.4647197,24.75 Z"></path>
                        <path d="M10.4647197,24.45 C10.5647197,24.45 10.5647197,24.35 10.6647197,24.35 C10.6647197,24.45 10.5647197,24.55 10.5647197,24.65 C10.3647197,24.65 10.2647197,24.65 10.4647197,24.45 Z"></path>
                        <path d="M11.5647197,23.05 C11.5647197,22.85 11.4647197,22.65 11.4647197,22.35 L11.8647197,22.45 C10.9647197,22.85 12.5647197,22.55 11.5647197,23.05 Z"></path>
                        <path d="M9.66471971,19.85 L8.66471971,19.95 C8.36471971,19.55 10.3647197,18.55 8.76471971,18.55 C9.36471971,18.65 9.76471971,17.95 10.1647197,18.45 C9.36471971,18.95 9.36471971,19.55 9.66471971,19.85 Z"></path>
                        <path d="M7.86471971,18.45 C7.56471971,18.55 7.36471971,18.45 7.06471971,18.45 C6.96471971,18.25 7.36471971,18.05 7.76471971,18.05 C6.56471971,18.45 8.66471971,18.15 7.86471971,18.45 Z"></path>
                        <path d="M7.66471971,16.25 C7.66471971,16.35 7.56471971,16.55 7.26471971,16.45 C7.26471971,16.05 8.36471971,16.05 9.06471971,15.75 C9.76471971,15.95 8.26471971,16.45 7.66471971,16.25 Z"></path>
                        <path d="M0.164719713,13.05 C1.06471971,13.05 0.864719713,13.45 0.664719713,13.55 C0.764719713,13.45 0.464719713,13.15 0.164719713,13.05 Z"></path>
                        <polygon points="7.26471971 12.85 7.46471971 12.95 6.16471971 13.05"></polygon>
                        <polygon points="7.96471971 10.25 8.76471971 9.95 8.66471971 10.45"></polygon>
                        <path d="M7.76471971,9.75 L7.86471971,9.35 L8.16471971,9.55 C8.46471971,9.75 7.76471971,9.65 7.76471971,9.75 Z"></path>
                        <path d="M8.06471971,8.45 C7.96471971,8.45 8.16471971,8.55 8.26471971,8.55 L7.66471971,8.95 L8.06471971,8.45 Z"></path>
                        <path d="M3.56471971,0.75 C2.66471971,0.75 3.26471971,0.35 3.16471971,0.25 C3.36471971,0.25 4.36471971,0.65 3.56471971,0.75 Z"></path>
                    </g>
                    <path d="M37.8856539,149.824571 L34.5856539,197.424571 C34.5856539,197.424571 45.0856539,193.624571 49.2856539,190.824571 C53.4856539,188.024571 57.5856539,155.124571 57.5856539,155.124571 C57.5856539,155.124571 36.6856539,150.724571 37.8856539,149.824571 Z" id="Path" fill="#FFF0DD" fill-rule="nonzero"></path>
                    <g opacity="0.58" transform="translate(32.585654, 149.274571)" fill="#322015" fill-rule="nonzero" id="Path">
                        <g>
                            <path d="M11.2,10.25 C11.2,10.35 11.1,10.35 11.1,10.45 C11.1,10.45 11.1,10.45 11.2,10.25 Z"></path>
                            <path d="M7.4,6.55 L7.6,6.35 C7.6,6.45 7.5,6.55 7.4,6.55 Z"></path>
                            <path d="M10.1,11.95 C10.1,12.05 10,12.15 9.9,12.25 L10.1,11.95 Z"></path>
                            <path d="M8.9,12.35 C8.9,12.35 8.8,12.45 8.8,12.45 C8.8,12.35 8.9,12.35 8.9,12.35 Z"></path>
                            <path d="M15.1,13.15 C15.1,13.05 15.1,13.05 15.1,13.15 C15.1,13.05 15.1,13.05 15.1,13.15 Z"></path>
                            <path d="M15,13.75 C15,13.75 15.1,13.75 15,13.75 L15,13.85 C15,13.85 15,13.75 15,13.75 Z"></path>
                            <path d="M14.6,13.85 L14.6,13.85 C14.7,13.95 14.6,13.95 14.6,13.85 Z"></path>
                            <path d="M14.3,18.05 L14.1,18.25 C14.2,18.15 14.3,18.15 14.3,18.05 Z"></path>
                            <path d="M15.2,12.85 C15.2,12.95 15.1,12.95 15.1,13.05 C15.1,12.95 15.1,12.95 15.2,12.85 Z"></path>
                            <path d="M11.3,10.15 C11.3,10.25 11.2,10.25 11.3,10.15 C11.2,10.25 11.3,10.25 11.3,10.15 Z"></path>
                            <path d="M6.3,4.95 C6.3,4.85 6.3,4.85 6.3,4.75 C6.4,4.75 6.4,4.85 6.3,4.95 Z"></path>
                            <path d="M13.7,12.65 C13.1,13.25 13.8,12.85 13.2,13.35 C13.3,13.15 13.3,12.95 13,13.25 C12.7,13.65 13.2,13.35 12.7,13.95 L12.8,13.65 C12.5,13.85 12.2,14.35 12.2,14.25 C12.8,13.45 11.6,14.25 11.6,14.05 L11.6,14.15 L11.1,14.35 C11.1,14.35 11.1,14.35 11.1,14.35 C11.1,14.35 11.2,14.25 11.2,14.25 C10.8,14.55 10.4,14.65 10.4,14.45 C10.7,14.05 10.1,13.85 10.4,13.55 C10.4,13.75 10.4,13.75 10.6,13.75 L11.1,13.25 C11,13.15 10.6,13.65 10.8,13.25 C11.5,12.65 11,13.45 11.1,13.45 C11.2,13.25 11.3,13.15 11.3,12.95 C11.5,13.15 11.9,13.05 11.3,13.85 C11.5,13.75 11.7,13.45 11.8,13.35 C11.6,13.85 12.3,13.05 12,13.55 C12.6,12.95 12.1,12.95 12.3,12.55 C11.7,12.85 11.9,12.25 11.8,11.95 C11.3,12.35 11.1,12.85 10.8,13.05 C10.3,13.15 10.9,12.65 11,12.25 C10.7,12.25 10.2,12.95 10,12.75 L9.8,13.15 C9,13.65 9.9,12.85 9.7,12.85 C9.9,12.75 10.1,12.55 10.1,12.65 C10.3,12.45 10.4,12.25 10.4,12.25 L10.4,12.25 C10.7,11.95 11,11.55 10.7,11.65 C10.4,12.05 10.3,11.85 10.1,11.95 L10.1,12.05 C10.1,11.85 10,11.75 10,11.65 L9.9,11.75 C10,11.55 10.4,11.05 10.2,11.05 C10,11.25 9.6,11.85 9.6,11.65 C9.3,11.95 9.4,12.05 9.6,12.05 C9.4,12.05 8.9,12.45 9,12.55 C8.6,12.85 9,12.25 8.8,12.35 C8.9,12.25 9,12.15 9.1,12.05 C8.6,12.45 8.8,11.85 9.2,11.55 L9,11.95 C9.4,11.55 9.5,11.25 9.8,11.05 C9.1,11.55 9.8,10.45 9.2,10.85 L9.6,10.65 C9.2,10.55 9.7,9.75 9.7,9.35 C9.6,9.65 8.9,10.25 9.3,10.15 C9,10.05 8.5,10.65 8.1,10.85 C7.7,10.85 8.7,10.15 8.8,9.95 L8.8,10.15 C9.5,9.25 8.2,9.75 8.5,9.05 C8.3,9.25 8.4,9.25 8.4,9.35 C7.9,9.55 8.4,9.15 8.5,8.95 C8.3,8.85 8,8.85 7.6,9.35 C7.4,9.35 7.9,9.15 8,8.85 L7.9,8.95 L8.4,8.35 C8.1,8.35 7.7,8.45 7.2,8.75 C7.1,8.35 8.3,7.65 8.3,7.35 C7.9,7.45 7.9,7.65 7.7,7.85 L7.6,7.65 C7.1,8.15 7.5,8.05 6.8,8.65 C7.4,7.95 6.8,8.25 7.1,7.75 L7.2,7.75 C7.6,7.25 7.1,7.35 7.1,7.15 C6.8,7.45 6.9,7.55 6.9,7.75 C6.6,7.75 6.5,7.25 7.1,6.65 C6.9,6.65 6.6,6.65 6.4,6.95 C6.1,6.75 7.2,6.15 6.8,6.05 L6.3,6.45 C5.4,6.65 6.5,5.45 5.7,5.65 L6.3,5.25 C6,5.35 5.8,5.35 5.6,5.45 L5.5,5.75 C4.9,5.95 5.9,5.25 5.4,5.35 C5.6,5.25 6.1,5.05 6.3,4.95 C6.3,5.75 7.6,5.65 7.4,6.65 C7.3,6.65 7.2,6.75 7.1,6.85 C7.3,6.85 7.2,7.05 7.5,6.75 L7.5,6.65 C7.5,6.85 8.3,6.45 8.3,6.55 C8,6.95 8.7,6.75 8,7.15 L8.5,6.95 C8.3,7.15 7.9,7.45 7.9,7.55 C8,7.65 8.3,7.35 8.4,7.15 C8.9,7.35 9.2,7.75 9.3,8.35 L9.5,8.05 C9.7,8.05 9.2,8.85 9.9,8.05 C9.7,8.45 10.5,8.35 9.7,9.05 C10.6,8.55 10.4,9.15 10.5,9.55 C9.8,10.05 10.5,9.95 10.2,10.25 C10.7,9.85 10.6,9.55 10.9,9.25 C10.3,10.25 12.1,9.35 10.8,10.65 C10.9,10.65 10.9,10.55 11,10.55 C11,10.55 11.3,10.45 11.4,10.45 C11.2,10.65 11,10.65 11,10.85 C11.1,10.85 11.4,10.55 11.6,10.35 C11.5,10.75 11.6,11.15 11.1,11.65 C11.3,11.55 11.6,11.35 11.7,11.15 C11.5,11.75 12,11.35 12,11.85 C11.9,11.75 12.5,11.25 12.2,11.35 C13,10.75 12.5,11.85 13,11.75 L12.6,12.25 C12.6,12.45 13.1,12.05 13.2,11.75 C13.7,11.65 13.5,12.05 13.7,12.25 C13.8,12.25 13.8,12.15 13.8,12.15 L14,12.35 C13.9,12.45 13.8,12.85 13.5,13.05 C13.9,12.85 14,12.65 13.7,12.65 Z"></path>
                            <path d="M9.5,12.85 C9.6,12.75 9.7,12.75 9.8,12.75 C9.6,12.85 9.5,12.85 9.5,12.85 Z"></path>
                            <path d="M15.2,16.05 C14.5,16.75 15.1,15.75 14.9,15.95 C14.9,16.15 14.5,16.55 14.3,16.75 C15,15.65 14,16.85 13.9,16.35 C13.6,16.65 13.7,16.85 13.4,17.15 C13.5,16.75 13.4,16.45 13.8,15.95 C13.6,15.75 13.3,15.75 13.2,15.55 C13.2,15.95 12.8,16.15 12.5,16.65 C12.9,15.85 13.2,14.85 13.6,13.85 C13,14.35 13,14.45 12.5,14.95 C11.9,15.05 12.9,14.35 12.5,14.25 L12.7,14.25 C12.7,13.95 13.3,13.45 13.6,13.05 L13.8,13.45 C14.2,13.05 13.9,12.95 14,12.75 C14.4,12.25 14.5,12.55 14.8,12.15 C14.5,12.45 14.7,12.55 14.7,12.75 L14.9,12.55 C15.2,12.45 14.8,13.05 14.9,13.15 C15,13.05 15,13.05 15,13.05 C14.8,13.35 14.6,13.65 14.6,13.85 L14.6,13.75 C14.2,14.35 14.2,14.95 13.5,15.35 L14,15.45 C14.5,14.85 15.2,13.95 15.1,13.75 L15.3,13.45 C15.7,13.25 15.3,14.25 14.8,14.65 C13.7,16.15 15.2,15.15 15,15.85 C15.3,15.45 15.3,15.25 15.5,14.95 C15.5,14.85 15.4,14.85 15.2,15.15 C15.1,14.65 16.3,14.05 15.9,13.85 C15.6,13.95 15.6,14.65 15.3,14.45 L16.1,13.25 C16.2,13.35 16.2,13.65 16.2,13.95 C16.2,15.15 17.2,14.95 17.2,14.95 C17.6,15.35 18.1,15.75 18.5,16.25 C18.9,16.65 19.4,17.05 19.8,17.35 C20,17.65 20.1,17.65 19.7,18.95 C19.5,19.15 19.3,18.95 19.2,19.35 C19.4,18.85 19.4,18.55 19.2,18.55 C18.9,18.95 19.3,18.85 19.1,18.95 L19,18.95 C18.9,19.15 18.8,19.35 18.9,19.35 C18.3,19.85 18,19.55 18.3,18.65 C17.9,18.95 18,19.35 17.9,19.75 C17.1,19.65 16.7,19.35 16.1,18.95 C16.6,18.25 16.4,18.45 16.6,17.95 L16.4,18.15 C16.5,18.05 16.8,17.45 17,17.45 C16.3,17.75 17.3,16.25 17.4,15.75 L17.1,16.15 C17,15.95 16.9,15.95 16.9,15.65 C16.1,16.15 17.1,15.95 16.3,16.75 L16.3,16.55 C16.1,16.95 15.7,17.55 15.6,17.85 C15.8,17.05 15,17.75 15.1,17.05 C14.8,17.45 14.8,17.95 14.9,18.05 C14.8,18.05 14.8,17.55 14.5,17.95 L14.9,17.45 C14.8,17.25 14.6,17.95 14.2,18.15 C13.7,17.85 15.3,16.65 15.2,16.05 Z"></path>
                            <path d="M11.1,12.75 C11.2,12.75 11.2,12.85 11.2,12.85 C11.1,12.85 11.1,12.85 11.1,12.75 Z"></path>
                            <path d="M11,14.35 C10.9,14.45 10.9,14.45 10.9,14.55 C10.9,14.45 10.9,14.35 11,14.35 Z"></path>
                            <path d="M10.4,15.05 C10.6,14.85 10.6,14.85 10.8,14.55 C10.7,14.75 10.9,14.85 10.4,15.05 Z"></path>
                            <path d="M0.3,0.65 C0.5,0.55 0.6,0.35 0.7,0.35 L0.6,0.65 L0.3,0.65 Z"></path>
                            <path d="M1.1,0.85 L1.4,0.95 L0.7,1.45 C0.6,1.15 1.2,1.05 1.1,0.85 Z"></path>
                            <path d="M1.8,1.15 L2,1.05 C1.9,1.15 1.8,1.15 1.8,1.15 Z"></path>
                            <path d="M1.4,1.35 L0.9,1.65 L1.2,1.25 L1.4,1.35 C1.5,1.15 1.6,1.25 1.7,1.15 L1.3,1.45 C1.4,1.45 1.5,1.35 1.4,1.35 Z"></path>
                            <path d="M1.5,1.55 C1.4,1.55 1.4,1.55 1.3,1.65 C1.4,1.55 1.4,1.55 1.5,1.55 Z"></path>
                            <path d="M2.8,1.55 C2.6,1.65 2.3,1.85 2.1,1.95 C1.8,1.85 2.6,1.45 2.3,1.45 C2,1.95 1.9,1.55 1.6,1.55 C2.2,1.35 2.6,1.25 2.8,1.35 L2.5,1.55 C2.4,1.65 2.6,1.55 2.8,1.55 Z"></path>
                            <path d="M2.4,2.95 L2.8,2.55 C2.5,2.65 2.4,2.45 1.9,2.75 C1.9,2.65 2.2,2.45 2.3,2.35 C2,2.45 1.8,2.45 2.1,2.25 C2.6,2.45 2.7,2.25 3,2.45 C3.1,2.35 3.1,2.35 3,2.35 L3.4,2.35 C2.8,2.65 2.9,2.85 2.4,2.95 Z"></path>
                            <path d="M3,2.95 C2.9,2.75 3.4,2.45 3.7,2.35 L3.5,2.85 C3.5,2.75 3.4,2.65 3,2.95 Z"></path>
                            <path d="M3.1,3.15 C3.4,3.05 4,2.85 3.6,3.25 C3.5,3.05 2.8,3.55 3.1,3.15 Z"></path>
                            <path d="M4.2,3.95 L3.7,3.85 C3,4.15 3.6,4.15 3.3,4.35 C3,4.15 3.3,4.15 3.6,3.65 C3.5,3.65 3.8,3.25 3.9,3.05 C3.6,3.95 5.2,2.95 4.2,3.95 Z"></path>
                            <polygon points="3.2 3.75 3.4 3.65 3.3 3.85"></polygon>
                            <path d="M5.3,4.15 C6.2,3.85 5.1,4.75 5.5,4.75 C5.5,4.75 5.6,4.65 5.7,4.55 L5.7,4.75 L5.9,4.65 C5.4,4.95 5.4,5.25 5.1,5.55 C4.5,5.75 5.6,5.05 5,5.25 C4.8,5.45 4.5,5.65 4.4,5.85 C4.6,5.55 4.8,5.35 5,5.15 C5,5.05 4.7,5.25 4.6,5.35 C4.8,5.05 5.4,4.65 5.2,4.55 C4.7,4.65 4.6,5.05 4.7,4.75 C5.5,4.35 4.4,4.65 4.9,4.25 C4.7,4.15 4.2,4.35 3.9,4.55 C4.5,4.15 4.9,3.75 5,3.55 L4.7,4.15 L5.4,3.85 C5,4.05 5.2,4.15 5.3,4.15 L5.3,4.15 Z"></path>
                            <path d="M4.4,5.85 C4.4,5.85 4.3,5.95 4.3,5.95 C4.3,5.95 4.4,5.95 4.4,5.85 Z"></path>
                            <polygon points="3.6 4.65 3.5 4.75 3.3 4.85"></polygon>
                            <path d="M4.1,6.35 C4.1,6.35 4.3,6.15 4.3,6.15 L4,6.45 L4.1,6.35 Z"></path>
                            <polygon points="4.6 6.15 5 5.95 4.7 6.25"></polygon>
                            <path d="M7.5,9.25 C7.2,9.35 7.6,8.95 7.9,8.75 C8.1,8.85 7.5,9.05 7.5,9.25 Z"></path>
                            <path d="M8.7,11.65 C8.3,11.75 8.6,11.35 8.5,11.25 C8.8,11.15 8.8,11.45 8.7,11.65 Z"></path>
                            <path d="M8.1,13.75 C8.2,13.65 8.2,13.55 8.3,13.55 L8.9,12.75 C9.3,12.75 8.4,13.45 8.1,13.75 Z"></path>
                            <path d="M8.9,14.85 L9,14.45 L9.1,14.55 C9.3,14.25 9.4,14.05 9.6,13.85 C9.6,13.95 9.4,14.35 8.9,14.85 Z"></path>
                            <path d="M9.6,13.45 C9.6,13.55 9.6,13.55 9.6,13.45 C9.5,13.65 9.4,13.75 9.6,13.45 Z"></path>
                            <path d="M9.7,13.65 C9.6,13.65 9.6,13.75 9.7,13.65 C9.6,13.65 9.6,13.65 9.7,13.65 C9.7,13.55 9.8,13.45 9.7,13.65 Z"></path>
                            <path d="M9.3,14.65 L9.5,14.95 L9.3,14.95 C9.7,14.55 8.9,15.05 9.3,14.65 Z"></path>
                            <path d="M11.1,15.65 L11.5,15.25 C11.8,15.35 11.1,16.45 11.8,15.85 C11.5,16.05 11.5,16.45 11.2,16.35 C11.5,15.85 11.3,15.65 11.1,15.65 Z"></path>
                            <path d="M12.3,15.55 C12.4,15.35 12.5,15.35 12.6,15.25 C12.7,15.25 12.6,15.55 12.4,15.65 C12.9,15.05 12,15.95 12.3,15.55 Z"></path>
                            <path d="M13,16.35 C13,16.25 12.9,16.15 13.1,16.15 C13.2,16.35 12.8,16.75 12.6,17.15 C12.2,17.25 12.7,16.45 13,16.35 Z"></path>
                            <path d="M16.9,14.15 C16.6,14.55 16.5,14.35 16.6,14.25 C16.6,14.25 16.8,14.25 16.9,14.15 Z"></path>
                            <polygon points="14.3 17.25 14.2 17.35 14.7 16.75"></polygon>
                            <polygon points="15 18.35 14.9 18.85 14.7 18.65"></polygon>
                            <path d="M15.3,18.45 L15.4,18.65 L15.2,18.75 C15.1,18.75 15.3,18.45 15.3,18.45 Z"></path>
                            <path d="M15.7,18.85 C15.7,18.75 15.6,18.85 15.6,18.95 L15.6,18.55 L15.7,18.85 Z"></path>
                            <path d="M20,17.85 C20.2,17.35 20.2,17.75 20.3,17.65 C20.2,17.85 19.8,18.35 20,17.85 Z"></path>
                        </g>
                    </g>
                    <path d="M26.9856539,20.7245714 C26.9856539,20.7245714 8.78565394,17.1245714 5.98565394,16.5245714 C3.18565394,15.9245714 -1.21434606,20.3245714 0.685653942,31.9245714 C2.58565394,43.5245714 8.68565394,50.2245714 16.4856539,54.2245714 C24.2856539,58.2245714 25.0856539,58.5245714 25.4856539,59.3245714 C25.9856539,60.1245714 28.6856539,71.5245714 28.4856539,72.5245714 C28.2856539,73.5245714 14.8856539,97.2245714 25.0856539,130.624571 C35.2856539,164.024571 76.2856539,186.724571 86.9856539,190.924571 C86.9856539,190.924571 76.2856539,192.624571 76.4856539,207.424571 C76.4856539,207.424571 153.685654,207.424571 156.685654,207.424571 C159.685654,207.424571 164.585654,186.724571 160.285654,159.524571 C155.985654,132.324571 134.085654,115.124571 121.785654,102.924571 C109.485654,90.6245714 100.685654,75.8245714 95.8856539,61.9245714 C90.9856539,48.0245714 89.8856539,42.7245714 88.7856539,39.5245714 C88.7856539,39.5245714 87.5856539,25.3245714 87.3856539,18.2245714 C87.1856539,11.1245714 86.4856539,1.82457141 81.1856539,0.424571412 C75.8856539,-0.975428588 70.5856539,4.32457141 64.3856539,12.0245714 C64.3856539,11.8245714 35.2856539,4.22457141 26.9856539,20.7245714 Z" id="Path" fill="#FFF0DD" fill-rule="nonzero"></path>
                    <g opacity="0.58" transform="translate(70.302811, 153.124571)" fill="#322015" fill-rule="nonzero" id="Path">
                        <g transform="translate(0.000000, -0.000000)">
                            <path d="M2.38284271,21.9 C2.48284271,21.9 2.58284271,21.8 2.58284271,21.8 C2.58284271,21.9 2.48284271,21.9 2.38284271,21.9 Z"></path>
                            <path d="M1.08284271,31.6 C1.08284271,31.7 1.08284271,31.7 1.08284271,31.6 L1.08284271,31.6 L1.08284271,31.6 Z"></path>
                            <path d="M0.982842712,31.7 L0.782842712,31.7 C0.882842712,31.6 0.982842712,31.6 0.982842712,31.7 Z"></path>
                            <path d="M4.28284271,21.4 C4.38284271,21.3 4.48284271,21.3 4.68284271,21.2 L4.28284271,21.4 Z"></path>
                            <path d="M5.08284271,22.6 C5.08284271,22.6 5.18284271,22.6 5.18284271,22.7 C5.18284271,22.6 5.18284271,22.6 5.08284271,22.6 Z"></path>
                            <path d="M3.98284271,13.1 C3.98284271,13.1 3.88284271,13.1 3.88284271,13.1 C3.88284271,13.1 3.98284271,13.1 3.98284271,13.1 Z"></path>
                            <path d="M4.58284271,12.5 C4.58284271,12.4 4.58284271,12.4 4.58284271,12.3 L4.68284271,12.3 C4.78284271,12.4 4.68284271,12.5 4.58284271,12.5 Z"></path>
                            <path d="M4.88284271,12.9 L4.98284271,12.8 C4.88284271,12.8 4.88284271,12.9 4.88284271,12.9 Z"></path>
                            <path d="M9.08284271,9.6 L9.38284271,9.7 C9.28284271,9.6 9.18284271,9.6 9.08284271,9.6 Z"></path>
                            <path d="M3.58284271,13.1 C3.68284271,13.1 3.78284271,13.1 3.88284271,13.1 C3.78284271,13.1 3.78284271,13.2 3.58284271,13.1 Z"></path>
                            <path d="M2.28284271,21.9 C2.38284271,21.9 2.38284271,21.9 2.38284271,21.9 C2.28284271,21.9 2.28284271,21.9 2.28284271,21.9 Z"></path>
                            <path d="M0.582842712,35.3 C0.582842712,35.4 0.482842712,35.5 0.482842712,35.6 C0.382842712,35.4 0.382842712,35.3 0.582842712,35.3 Z"></path>
                            <path d="M3.88284271,15.6 C4.58284271,15.9 3.98284271,15.3 4.68284271,15.5 C4.48284271,15.6 4.28284271,15.7 4.68284271,15.9 C5.18284271,15.9 4.78284271,15.5 5.38284271,15.6 L5.08284271,15.8 C5.38284271,16.1 5.88284271,16 5.78284271,16.1 C4.88284271,16.1 5.88284271,17 5.68284271,17.2 L5.78284271,17.1 L6.08284271,17.6 C6.08284271,17.6 6.08284271,17.6 6.08284271,17.6 C5.98284271,17.6 5.98284271,17.6 5.88284271,17.6 C6.28284271,17.9 6.48284271,18.2 6.28284271,18.5 C5.78284271,18.5 5.88284271,19.4 5.38284271,19.5 C5.58284271,19.4 5.58284271,19.3 5.48284271,19.1 L4.88284271,19 C4.78284271,19.3 5.38284271,19.2 4.98284271,19.4 C4.18284271,19.1 5.08284271,19 5.08284271,18.8 C4.88284271,18.8 4.68284271,18.9 4.58284271,19 C4.68284271,18.6 4.48284271,18.1 5.38284271,18 C5.28284271,17.8 4.88284271,17.8 4.78284271,17.9 C5.28284271,17.7 4.38284271,17.6 4.88284271,17.4 C4.08284271,17.3 4.28284271,17.9 3.88284271,18.1 C4.38284271,18.6 3.68284271,19 3.48284271,19.4 C3.98284271,19.6 4.58284271,19.4 4.88284271,19.6 C5.18284271,20.1 4.48284271,20 4.08284271,20.1 C4.18284271,20.5 4.98284271,20.4 4.88284271,20.8 L5.28284271,20.6 C5.98284271,21.1 4.88284271,20.8 4.98284271,21 C4.78284271,20.9 4.58284271,20.8 4.68284271,20.6 C4.38284271,20.5 4.28284271,20.7 4.18284271,20.7 L4.18284271,20.6 C3.78284271,20.6 3.38284271,20.5 3.48284271,20.9 C3.98284271,20.8 3.78284271,21.2 3.98284271,21.4 L4.08284271,21.3 C3.88284271,21.5 3.88284271,21.7 3.78284271,21.9 L3.88284271,21.9 C3.68284271,22 3.08284271,22 3.18284271,22.2 C3.38284271,22.2 4.08284271,22.1 3.98284271,22.3 C4.38284271,22.3 4.48284271,22.1 4.38284271,21.8 C4.48284271,22.1 4.98284271,22.3 5.08284271,22 C5.48284271,22.2 4.78284271,22.2 4.98284271,22.4 C4.88284271,22.3 4.68284271,22.4 4.58284271,22.3 C5.18284271,22.4 4.48284271,22.9 4.08284271,22.8 L4.48284271,22.6 C3.98284271,22.5 3.58284271,22.8 3.38284271,22.6 C4.08284271,22.9 2.88284271,23.3 3.48284271,23.6 L3.08284271,23.4 C3.18284271,24.1 2.18284271,24.4 1.88284271,25 C2.18284271,24.8 2.98284271,25 2.78284271,24.6 C2.78284271,25.2 3.58284271,24.9 3.98284271,25.2 C4.18284271,25.7 3.18284271,25.3 2.88284271,25.4 L3.08284271,25.1 C2.08284271,25.3 3.08284271,26.3 2.38284271,26.8 C2.58284271,26.9 2.58284271,26.7 2.68284271,26.6 C3.08284271,27 2.48284271,26.9 2.28284271,27 C2.28284271,27.3 2.48284271,27.7 3.08284271,27.6 C3.18284271,27.9 2.68284271,27.5 2.48284271,27.6 L2.58284271,27.7 L1.88284271,27.9 C1.98284271,28.2 2.28284271,28.6 2.88284271,28.8 C2.68284271,29.4 1.48284271,28.8 1.18284271,29.2 C1.48284271,29.5 1.68284271,29.2 1.88284271,29.2 L1.78284271,29.6 C2.48284271,29.6 2.18284271,29.2 2.98284271,29.3 C2.08284271,29.5 2.68284271,29.7 2.08284271,30.1 L1.98284271,30.1 C1.38284271,30.2 1.68284271,30.8 1.58284271,31 C1.88284271,30.9 1.98284271,30.6 2.18284271,30.5 C2.38284271,30.8 1.98284271,31.6 1.28284271,31.8 C1.38284271,32 1.58284271,32.4 1.88284271,32.2 C1.88284271,32.8 0.882842712,32.3 0.982842712,32.9 L1.48284271,32.9 C2.18284271,33.6 0.682842712,34 1.28284271,34.6 L0.582842712,34.6 C0.882842712,34.8 0.982842712,35 1.18284271,35.1 L1.48284271,34.8 C1.98284271,35.1 0.882842712,35 1.28284271,35.4 C1.08284271,35.4 0.682842712,35.1 0.482842712,35.1 C0.982842712,33.9 0.182842712,32.6 0.982842712,31.5 C1.08284271,31.6 1.18284271,31.6 1.28284271,31.6 C1.18284271,31.4 1.38284271,31.2 0.982842712,31.2 L0.882842712,31.2 C1.08284271,30.9 0.282842712,30.5 0.382842712,30.3 C0.882842712,30.2 0.282842712,29.6 1.08284271,29.9 L0.682842712,29.6 C0.982842712,29.6 1.38284271,29.7 1.48284271,29.6 C1.48284271,29.4 1.18284271,29.3 0.982842712,29.5 C0.782842712,28.6 1.08284271,27.6 1.48284271,26.8 L1.08284271,27 C0.982842712,26.8 1.88284271,26.4 0.882842712,26.4 C1.28284271,26.1 0.882842712,25.2 1.78284271,25.4 C0.882842712,24.9 1.58284271,24.3 1.88284271,23.8 C2.68284271,24.1 2.18284271,23.4 2.58284271,23.3 C1.98284271,23.1 1.88284271,23.6 1.38284271,23.6 C2.48284271,23.2 1.08284271,21.8 2.68284271,21.9 C2.68284271,21.8 2.58284271,21.8 2.48284271,21.8 C2.48284271,21.7 2.28284271,21.5 2.18284271,21.3 C2.48284271,21.3 2.58284271,21.6 2.68284271,21.3 C2.68284271,21.1 2.18284271,21.1 1.98284271,21 C2.48284271,20.7 2.78284271,20.1 3.38284271,20.1 C3.28284271,19.9 2.88284271,19.7 2.78284271,19.8 C3.48284271,19.3 2.88284271,19.1 3.28284271,18.6 C3.18284271,18.8 2.58284271,18.5 2.78284271,18.9 C1.98284271,18.4 3.18284271,17.9 2.88284271,17.3 L3.48284271,17.2 C3.68284271,16.9 3.08284271,16.7 2.88284271,16.9 C2.68284271,16.3 3.08284271,16.1 3.18284271,15.7 C3.08284271,15.7 2.98284271,15.6 2.98284271,15.7 L3.08284271,15.1 C3.28284271,15.1 3.58284271,14.9 3.98284271,15.1 C3.98284271,15.2 3.68284271,15.2 3.88284271,15.6 Z"></path>
                            <path d="M5.38284271,21.2 C5.28284271,21.1 5.18284271,21 5.18284271,21 C5.28284271,21.1 5.28284271,21.2 5.38284271,21.2 Z"></path>
                            <path d="M6.98284271,10 C7.78284271,10.4 6.68284271,10.3 6.88284271,10.6 C7.08284271,10.4 7.58284271,10.6 7.78284271,10.7 C6.58284271,10.6 7.88284271,11.1 7.48284271,11.6 C7.88284271,11.7 7.98284271,11.5 8.38284271,11.6 C7.98284271,11.8 7.68284271,12.2 7.08284271,12.1 C6.88284271,12.6 6.98284271,13 6.78284271,13.3 C7.18284271,13 7.38284271,13.4 8.08284271,13.3 C7.28284271,13.5 6.08284271,14 5.08284271,14.3 C5.78284271,14.6 5.78284271,14.6 6.48284271,14.7 C6.78284271,15.5 5.78284271,14.7 5.78284271,15.4 L5.78284271,15.1 C5.48284271,15.3 4.88284271,15.2 4.38284271,15.1 L4.68284271,14.4 C4.18284271,14.3 4.18284271,14.7 3.98284271,14.8 C3.38284271,14.9 3.68284271,14.3 3.18284271,14.3 C3.58284271,14.3 3.58284271,14 3.78284271,13.9 L3.58284271,13.8 C3.38284271,13.4 4.08284271,13.4 4.18284271,13.1 C4.08284271,13.1 4.08284271,13 3.98284271,13 C4.28284271,13 4.68284271,13 4.78284271,12.8 L4.68284271,12.9 C5.38284271,12.8 5.88284271,12.3 6.48284271,12.9 L6.48284271,12.1 C5.78284271,12 4.78284271,11.8 4.58284271,12.2 L4.28284271,12.2 C3.98284271,11.8 5.08284271,11.5 5.58284271,11.9 C7.28284271,12.1 5.98284271,10.8 6.78284271,10.5 C6.38284271,10.3 6.08284271,10.6 5.78284271,10.6 C5.68284271,10.7 5.68284271,10.9 5.98284271,11 C5.48284271,11.6 4.68284271,10.4 4.58284271,11.2 C4.68284271,11.6 5.38284271,11 5.28284271,11.5 L3.98284271,11.5 C4.08284271,11.2 4.38284271,10.9 4.68284271,10.7 C5.98284271,9.4 5.68284271,8.1 5.68284271,8.1 C6.58284271,5.9 7.58284271,3.7 8.58284271,1.6 C9.08284271,1 9.08284271,0.7 10.3828427,1 C10.5828427,1.2 10.2828427,1.6 10.6828427,1.6 C10.1828427,1.5 9.88284271,1.6 9.78284271,2 C10.1828427,2.2 10.0828427,1.8 10.1828427,1.9 L10.1828427,2 C10.3828427,2.1 10.5828427,2.1 10.6828427,2 C11.1828427,2.7 10.6828427,3.3 9.78284271,3.3 C10.0828427,3.8 10.4828427,3.3 10.8828427,3.3 C10.7828427,4.5 10.3828427,5.3 9.98284271,6.4 C9.18284271,6.1 9.48284271,6.3 8.88284271,6.3 L9.08284271,6.5 C8.98284271,6.4 8.38284271,6.4 8.28284271,6.1 C8.58284271,7 6.98284271,6.5 6.48284271,6.9 L6.88284271,7 C6.68284271,7.4 6.58284271,7.5 6.28284271,7.7 C6.78284271,8.6 6.58284271,7.2 7.48284271,7.7 L7.28284271,7.8 C7.68284271,7.8 8.38284271,7.9 8.68284271,7.9 C7.88284271,8.3 8.68284271,8.8 7.98284271,9.3 C8.48284271,9.4 8.98284271,8.9 9.08284271,8.8 C9.08284271,9 8.58284271,9.3 8.98284271,9.5 L8.38284271,9.4 C8.18284271,9.8 8.88284271,9.5 9.18284271,9.8 C8.98284271,10.6 7.58284271,9.3 6.98284271,10 Z"></path>
                            <path d="M4.68284271,19.2 C4.68284271,19.1 4.68284271,19 4.78284271,18.9 C4.78284271,19 4.78284271,19.1 4.68284271,19.2 Z"></path>
                            <path d="M6.18284271,17.7 C6.28284271,17.7 6.38284271,17.7 6.38284271,17.7 C6.38284271,17.7 6.28284271,17.7 6.18284271,17.7 Z"></path>
                            <path d="M6.98284271,17.7 C6.78284271,17.6 6.68284271,17.7 6.38284271,17.7 C6.58284271,17.6 6.68284271,17.3 6.98284271,17.7 Z"></path>
                            <path d="M3.68284271,45 C3.68284271,45 3.68284271,44.9 3.68284271,44.9 C3.68284271,45 3.68284271,45.1 3.68284271,45.1 C3.68284271,45.1 3.68284271,45 3.68284271,45 L3.68284271,45 C3.68284271,45 3.68284271,45 3.68284271,45 L3.68284271,45 L3.68284271,45 Z"></path>
                            <path d="M3.48284271,45.2 C3.38284271,45.2 3.28284271,45.3 3.18284271,45.3 C3.38284271,45.1 3.58284271,44.9 3.68284271,44.7 C3.88284271,44.8 3.38284271,45.1 3.48284271,45.2 Z"></path>
                            <path d="M2.88284271,45 L2.78284271,45.1 C2.78284271,45.1 2.78284271,45 2.88284271,45 Z"></path>
                            <path d="M3.08284271,44.8 L3.58284271,44.5 C3.48284271,44.6 3.38284271,44.8 3.38284271,44.9 C3.28284271,44.9 3.28284271,44.9 3.08284271,44.8 C2.98284271,45 2.88284271,44.9 2.78284271,45 C2.88284271,44.9 2.98284271,44.8 3.08284271,44.7 C3.08284271,44.8 3.08284271,44.9 3.08284271,44.8 Z"></path>
                            <path d="M2.98284271,44.6 C3.08284271,44.6 3.08284271,44.6 3.18284271,44.6 C3.18284271,44.5 3.08284271,44.6 2.98284271,44.6 Z"></path>
                            <path d="M1.78284271,44.1 C1.98284271,44.1 2.28284271,43.9 2.48284271,43.8 C2.78284271,44.1 1.98284271,44.3 2.28284271,44.5 C2.58284271,43.9 2.68284271,44.6 2.98284271,44.5 C2.48284271,44.6 2.08284271,44.6 1.78284271,44.3 L2.08284271,44.2 C2.18284271,44 1.98284271,44.2 1.78284271,44.1 Z"></path>
                            <path d="M2.38284271,42.2 L1.88284271,42.5 C2.18284271,42.5 2.18284271,43 2.78284271,42.9 C2.68284271,43.1 2.48284271,43.1 2.38284271,43.3 C2.68284271,43.4 2.88284271,43.4 2.58284271,43.6 C2.08284271,43 1.98284271,43.2 1.78284271,42.7 C1.68284271,42.7 1.68284271,42.8 1.68284271,42.9 L1.38284271,42.5 C1.88284271,42.3 1.88284271,41.8 2.38284271,42.2 Z"></path>
                            <path d="M1.88284271,41.6 C1.88284271,41.9 1.38284271,42.1 0.982842712,42 C1.08284271,41.8 1.28284271,41.5 1.38284271,41.3 C1.48284271,41.5 1.38284271,41.8 1.88284271,41.6 Z"></path>
                            <path d="M1.88284271,41.2 C1.58284271,41.1 0.982842712,40.9 1.58284271,40.7 C1.48284271,41 2.28284271,40.8 1.88284271,41.2 Z"></path>
                            <path d="M1.38284271,39 L1.68284271,39.6 C2.38284271,39.7 1.88284271,39.3 2.18284271,39.1 C2.28284271,39.6 2.08284271,39.4 1.68284271,39.8 C1.68284271,39.9 1.38284271,40.2 1.18284271,40.3 C1.78284271,39.6 0.0828427125,39.6 1.38284271,39 Z"></path>
                            <polygon points="2.08284271 40.2 1.78284271 40.3 1.98284271 40"></polygon>
                            <path d="M0.682842712,37.5 C-0.117157288,37.1 1.18284271,36.8 0.882842712,36.4 C0.782842712,36.4 0.782842712,36.4 0.682842712,36.5 L0.782842712,36.2 L0.582842712,36.2 C1.08284271,36.3 1.28284271,35.9 1.68284271,35.8 C2.18284271,36.2 1.08284271,35.9 1.58284271,36.3 C1.78284271,36.2 2.18284271,36.2 2.38284271,36.2 C2.08284271,36.4 1.78284271,36.4 1.48284271,36.5 C1.38284271,36.7 1.68284271,36.7 1.88284271,36.7 C1.58284271,36.9 0.882842712,36.9 0.982842712,37.3 C1.38284271,37.6 1.68284271,37.2 1.48284271,37.6 C0.682842712,37.3 1.58284271,38 1.08284271,38.2 C1.18284271,38.5 1.68284271,38.8 1.98284271,38.7 C1.38284271,38.7 0.782842712,38.9 0.682842712,39.2 L1.18284271,38.7 L0.482842712,38.5 C0.882842712,38 0.782842712,37.8 0.682842712,37.5 L0.682842712,37.5 Z"></path>
                            <path d="M2.38284271,36.1 C2.38284271,36.1 2.48284271,36 2.48284271,36 C2.48284271,36 2.48284271,36 2.38284271,36.1 Z"></path>
                            <polygon points="2.18284271 38.7 2.38284271 38.5 2.58284271 38.6"></polygon>
                            <path d="M2.88284271,35.8 C2.88284271,35.9 2.68284271,35.9 2.68284271,35.8 L2.98284271,35.7 L2.88284271,35.8 Z"></path>
                            <polygon points="2.48284271 35.5 2.08284271 35.2 2.38284271 35.2"></polygon>
                            <path d="M3.08284271,28.1 C3.28284271,28.4 2.78284271,28.3 2.48284271,28.2 C2.48284271,27.8 2.88284271,28.3 3.08284271,28.1 Z"></path>
                            <path d="M4.68284271,23.6 C4.98284271,23.9 4.38284271,24.1 4.38284271,24.3 C4.18284271,24.1 4.38284271,23.8 4.68284271,23.6 Z"></path>
                            <path d="M6.68284271,22.1 C6.48284271,22.1 6.38284271,22.2 6.38284271,22 L5.48284271,22 C5.28284271,21.6 6.28284271,22 6.68284271,22.1 Z"></path>
                            <path d="M7.38284271,20 L6.98284271,20.3 L6.98284271,20.1 C6.58284271,20.1 6.48284271,20.1 6.18284271,20.2 C6.38284271,19.9 6.78284271,19.8 7.38284271,20 Z"></path>
                            <path d="M5.88284271,20.4 C5.88284271,20.4 5.88284271,20.3 5.98284271,20.3 C6.08284271,20.4 6.18284271,20.4 5.88284271,20.4 Z"></path>
                            <path d="M5.98284271,20.2 C5.98284271,20.2 6.08284271,20.2 6.08284271,20.2 C5.98284271,20.3 5.98284271,20.3 5.88284271,20.4 C5.88284271,20.2 5.78284271,20.2 5.98284271,20.2 Z"></path>
                            <path d="M6.98284271,19.6 L7.18284271,19 L7.28284271,19.3 C6.78284271,19.2 7.58284271,19.6 6.98284271,19.6 Z"></path>
                            <path d="M7.38284271,16.3 L6.88284271,16.1 C6.88284271,15.7 8.08284271,15.5 7.38284271,15.1 C7.68284271,15.4 8.08284271,15 8.08284271,15.4 C7.58284271,15.5 7.38284271,16 7.38284271,16.3 Z"></path>
                            <path d="M7.08284271,14.7 C6.88284271,14.7 6.88284271,14.6 6.68284271,14.5 C6.68284271,14.3 6.98284271,14.3 7.08284271,14.4 C6.38284271,14.3 7.48284271,14.7 7.08284271,14.7 Z"></path>
                            <path d="M7.58284271,12.9 C7.58284271,13 7.48284271,13.1 7.38284271,12.9 C7.48284271,12.6 8.08284271,12.8 8.48284271,12.8 C8.68284271,13.2 7.78284271,13.2 7.58284271,12.9 Z"></path>
                            <path d="M4.78284271,9.1 C5.18284271,9.3 5.08284271,9.5 4.88284271,9.5 C4.98284271,9.5 4.88284271,9.2 4.78284271,9.1 Z"></path>
                            <polygon points="8.38284271 10.2 8.38284271 10.3 7.68284271 10.2"></polygon>
                            <polygon points="9.38284271 8.3 9.88284271 8.2 9.68284271 8.6"></polygon>
                            <path d="M9.38284271,7.9 L9.48284271,7.6 L9.58284271,7.8 C9.78284271,8 9.48284271,7.8 9.38284271,7.9 Z"></path>
                            <path d="M9.88284271,7 C9.78284271,7 9.88284271,7.1 9.98284271,7.1 L9.58284271,7.3 L9.88284271,7 Z"></path>
                            <path d="M9.28284271,0.7 C8.78284271,0.6 9.18284271,0.4 9.18284271,0.3 C9.28284271,0.3 9.78284271,0.7 9.28284271,0.7 Z"></path>
                        </g>
                    </g>
                    <path d="M156.685654,207.324571 C153.685654,207.324571 76.4856539,207.324571 76.4856539,207.324571 C76.3856539,192.624571 87.0856539,190.824571 87.0856539,190.824571 C87.0856539,190.824571 87.3856539,190.724571 87.9856539,190.624571 C87.9856539,190.624571 81.8856539,181.624571 84.9856539,167.524571 C74.8856539,161.724571 63.1856539,154.124571 51.5856539,137.524571 C37.4856539,117.424571 44.0856539,83.7245714 45.7856539,71.8245714 C47.4856539,59.9245714 48.3856539,47.9245714 47.0856539,45.6245714 C45.7856539,43.3245714 40.0856539,44.8245714 27.0856539,39.6245714 C16.6856539,35.5245714 11.8856539,28.6245714 10.3856539,25.9245714 C10.5856539,25.8245714 10.7856539,25.7245714 10.8856539,25.6245714 C13.4856539,24.0245714 14.4856539,21.1245714 14.7856539,19.3245714 C14.8856539,19.0245714 14.7856539,18.6245714 14.6856539,18.3245714 C20.4856539,19.5245714 26.9856539,20.7245714 26.9856539,20.7245714 C35.2856539,4.22457141 64.2856539,11.8245714 64.2856539,11.8245714 C70.4856539,4.12457141 75.6856539,-1.17542859 81.0856539,0.224571412 C86.4856539,1.62457141 87.1856539,10.9245714 87.2856539,18.0245714 C87.4856539,25.1245714 88.6856539,39.3245714 88.6856539,39.3245714 C89.7856539,42.5245714 90.8856539,47.8245714 95.7856539,61.7245714 C100.685654,75.6245714 109.485654,90.5245714 121.685654,102.724571 C133.885654,115.024571 155.885654,132.124571 160.185654,159.324571 C164.685654,186.624571 159.785654,207.324571 156.685654,207.324571 Z" id="Path" fill="#FBAF5E" fill-rule="nonzero"></path>
                    <path d="M87.0856539,190.924571 C87.0856539,190.924571 93.2856539,189.024571 100.185654,189.924571" id="Path" stroke="#1B1C1E" stroke-width="1.2604" stroke-linecap="round" stroke-linejoin="round"></path>
                    <path d="M87.9856539,190.624571 C87.9856539,190.624571 81.0856539,180.524571 85.6856539,164.924571 C89.5856539,151.524571 104.185654,147.324571 110.285654,148.024571" id="Path" stroke="#1B1C1E" stroke-width="1.2604" stroke-linecap="round" stroke-linejoin="round"></path>
                    <path d="M81.1856539,207.324571 C81.1856539,207.324571 80.6856539,201.024571 84.3856539,197.424571" id="Path" stroke="#1B1C1E" stroke-width="1.2604" stroke-linecap="round" stroke-linejoin="round"></path>
                    <path d="M49.9856539,135.024571 C49.9856539,135.024571 42.3856539,185.524571 40.4856539,190.924571 C40.4856539,190.924571 27.0856539,190.924571 27.0856539,207.424571 C27.0856539,207.424571 58.8856539,207.424571 60.1856539,207.424571 C61.1856539,207.424571 71.3856539,180.724571 78.1856539,163.424571 C81.0856539,155.924571 83.4856539,150.224571 84.0856539,149.224571 L49.9856539,135.024571 Z" id="Path" fill="#FBAF5E" fill-rule="nonzero"></path>
                    <path d="M34.5856539,207.324571 C34.5856539,207.324571 34.0856539,201.024571 37.7856539,197.424571" id="Path" stroke="#1B1C1E" stroke-width="1.2604" stroke-linecap="round" stroke-linejoin="round"></path>
                    <path d="M42.5856539,207.324571 C42.5856539,207.324571 42.8856539,201.724571 45.6856539,199.424571" id="Path" stroke="#1B1C1E" stroke-width="1.2604" stroke-linecap="round" stroke-linejoin="round"></path>
                    <path d="M89.1856539,207.324571 C89.1856539,207.324571 89.4856539,201.724571 92.2856539,199.424571" id="Path" stroke="#1B1C1E" stroke-width="1.2604" stroke-linecap="round" stroke-linejoin="round"></path>
                    <path d="M13.5856539,17.2245714 C14.4856539,17.4245714 14.9856539,18.3245714 14.7856539,19.2245714 C14.3856539,21.0245714 13.3856539,23.9245714 10.8856539,25.5245714 C6.98565394,28.0245714 1.58565394,26.7245714 0.285653942,23.9245714 C-1.01434606,21.0245714 2.38565394,15.4245714 5.18565394,15.5245714 C7.18565394,15.6245714 11.2856539,16.6245714 13.5856539,17.2245714 Z" id="Path" stroke="#1B1C1E" stroke-width="1.818" fill="#1B1C1E" fill-rule="nonzero" stroke-linecap="round" stroke-linejoin="round"></path>
                    <ellipse id="Oval" fill="#1B1C1E" fill-rule="nonzero" transform="translate(35.242994, 27.617351) rotate(-72.489097) translate(-35.242994, -27.617351) " cx="35.2429939" cy="27.6173514" rx="3.70015632" ry="2.70011407"></ellipse>
                    <path d="M47.2856539,16.3245714 C45.7856539,15.8245714 42.1856539,15.0245714 40.8856539,16.3245714 C39.2856539,17.8245714 41.2856539,20.2245714 45.4856539,21.3245714 C50.3856539,22.5245714 53.1856539,18.3245714 47.2856539,16.3245714 Z" id="Path" fill="#FFFFFF" fill-rule="nonzero"></path>
                    <path d="M72.9856539,21.1245714 C71.5856539,20.3245714 69.6856539,19.4245714 68.3856539,17.1245714 C67.0856539,14.8245714 68.3856539,12.4245714 70.9856539,9.82457141 C73.5856539,7.32457141 77.8856539,4.22457141 80.1856539,6.52457141 C82.3856539,8.72457141 80.9856539,20.3245714 79.0856539,22.0245714 C77.8856539,23.2245714 74.2856539,21.8245714 72.9856539,21.1245714 Z" id="Path" fill="#CC813E" fill-rule="nonzero"></path>
                    <path d="M4.68565394,43.5245714 C4.68565394,43.5245714 7.38565394,47.1245714 12.8856539,47.6245714 C17.6856539,48.0245714 19.8856539,45.9245714 19.8856539,45.9245714" id="Path" stroke="#1B1C1E" stroke-width="1.2604" stroke-linecap="round" stroke-linejoin="round"></path>
                    <path d="M78.1856539,163.324571 C81.0856539,155.824571 83.4856539,150.124571 84.0856539,149.124571" id="Path" stroke="#1B1C1E" stroke-width="1.2604" stroke-linecap="round" stroke-linejoin="round"></path>
                    <g opacity="0.58" transform="translate(19.743679, 57.297973)" fill="#322015" fill-rule="nonzero" id="Path">
                        <g>
                            <path d="M12.9419753,5.32659863 C12.9419753,5.22659863 12.9419753,5.22659863 12.9419753,5.12659863 C12.9419753,5.02659863 12.9419753,5.12659863 12.9419753,5.32659863 Z"></path>
                            <path d="M18.5419753,5.22659863 L18.5419753,5.52659863 C18.5419753,5.32659863 18.5419753,5.22659863 18.5419753,5.22659863 Z"></path>
                            <path d="M12.6419753,3.52659863 C12.6419753,3.42659863 12.5419753,3.32659863 12.5419753,3.22659863 L12.6419753,3.52659863 Z"></path>
                            <path d="M13.3419753,2.52659863 C13.3419753,2.52659863 13.3419753,2.42659863 13.3419753,2.42659863 C13.3419753,2.52659863 13.3419753,2.52659863 13.3419753,2.52659863 Z"></path>
                            <path d="M7.84197531,5.12659863 C7.84197531,5.22659863 7.84197531,5.22659863 7.84197531,5.12659863 C7.84197531,5.22659863 7.84197531,5.22659863 7.84197531,5.12659863 Z"></path>
                            <path d="M7.54197531,4.62659863 C7.54197531,4.72659863 7.44197531,4.62659863 7.54197531,4.62659863 L7.54197531,4.62659863 C7.54197531,4.52659863 7.54197531,4.62659863 7.54197531,4.62659863 Z"></path>
                            <path d="M7.74197531,4.42659863 L7.74197531,4.42659863 C7.74197531,4.32659863 7.74197531,4.32659863 7.74197531,4.42659863 Z"></path>
                            <path d="M6.04197531,0.926598632 L6.14197531,0.726598632 C6.04197531,0.726598632 6.04197531,0.826598632 6.04197531,0.926598632 Z"></path>
                            <path d="M7.84197531,5.52659863 C7.84197531,5.42659863 7.84197531,5.42659863 7.84197531,5.32659863 C7.84197531,5.32659863 7.94197531,5.32659863 7.84197531,5.52659863 Z"></path>
                            <path d="M12.9419753,5.42659863 C12.9419753,5.32659863 12.9419753,5.32659863 12.9419753,5.32659863 C12.9419753,5.32659863 12.9419753,5.32659863 12.9419753,5.42659863 Z"></path>
                            <path d="M20.6419753,5.22659863 C20.7419753,5.22659863 20.7419753,5.22659863 20.8419753,5.32659863 C20.6419753,5.42659863 20.6419753,5.32659863 20.6419753,5.22659863 Z"></path>
                            <path d="M9.34197531,4.92659863 C9.54197531,4.22659863 9.14197531,4.82659863 9.24197531,4.12659863 C9.34197531,4.32659863 9.34197531,4.42659863 9.44197531,4.02659863 C9.44197531,3.62659863 9.24197531,4.02659863 9.34197531,3.42659863 L9.44197531,3.72659863 C9.64197531,3.42659863 9.54197531,2.92659863 9.64197531,3.02659863 C9.64197531,3.92659863 10.1419753,2.72659863 10.2419753,2.92659863 L10.2419753,2.82659863 L10.5419753,2.42659863 C10.5419753,2.42659863 10.5419753,2.42659863 10.5419753,2.42659863 C10.5419753,2.42659863 10.5419753,2.52659863 10.5419753,2.62659863 C10.7419753,2.22659863 10.9419753,1.92659863 11.0419753,2.02659863 C11.0419753,2.52659863 11.5419753,2.22659863 11.6419753,2.72659863 C11.5419753,2.62659863 11.5419753,2.52659863 11.4419753,2.72659863 L11.3419753,3.32659863 C11.5419753,3.32659863 11.4419753,2.82659863 11.5419753,3.12659863 C11.4419753,3.92659863 11.3419753,3.12659863 11.1419753,3.12659863 C11.1419753,3.32659863 11.2419753,3.52659863 11.2419753,3.52659863 C11.0419753,3.52659863 10.7419753,3.72659863 10.6419753,2.92659863 C10.5419753,3.12659863 10.5419753,3.42659863 10.5419753,3.52659863 C10.4419753,3.02659863 10.3419753,3.92659863 10.2419753,3.52659863 C10.1419753,4.22659863 10.5419753,3.92659863 10.6419753,4.42659863 C10.9419753,3.82659863 11.1419753,4.42659863 11.4419753,4.62659863 C11.5419753,4.12659863 11.4419753,3.62659863 11.5419753,3.32659863 C11.8419753,3.02659863 11.7419753,3.62659863 11.8419753,4.02659863 C12.0419753,3.82659863 11.9419753,3.12659863 12.2419753,3.12659863 L12.1419753,2.72659863 C12.4419753,1.92659863 12.2419753,3.02659863 12.3419753,2.92659863 C12.2419753,3.12659863 12.2419753,3.32659863 12.1419753,3.32659863 C12.0419753,3.62659863 12.1419753,3.72659863 12.2419753,3.82659863 L12.2419753,3.82659863 C12.2419753,4.22659863 12.2419753,4.62659863 12.4419753,4.42659863 C12.3419753,3.92659863 12.6419753,4.12659863 12.6419753,3.92659863 L12.6419753,3.82659863 C12.7419753,4.02659863 12.8419753,3.92659863 12.9419753,4.02659863 L12.9419753,3.92659863 C13.0419753,4.12659863 12.9419753,4.72659863 13.1419753,4.62659863 C13.1419753,4.42659863 13.0419753,3.72659863 13.2419753,3.82659863 C13.2419753,3.52659863 13.1419753,3.42659863 12.9419753,3.52659863 C13.1419753,3.42659863 13.2419753,2.82659863 13.0419753,2.82659863 C13.1419753,2.42659863 13.1419753,3.02659863 13.2419753,2.82659863 C13.2419753,2.92659863 13.2419753,3.12659863 13.2419753,3.22659863 C13.3419753,2.62659863 13.5419753,3.22659863 13.5419753,3.62659863 L13.4419753,3.32659863 C13.3419753,3.82659863 13.5419753,4.12659863 13.4419753,4.42659863 C13.6419753,3.72659863 13.8419753,4.82659863 14.0419753,4.22659863 L13.9419753,4.62659863 C14.3419753,4.42659863 14.5419753,5.32659863 14.8419753,5.52659863 C14.7419753,5.32659863 14.8419753,4.42659863 14.5419753,4.72659863 C14.8419753,4.62659863 14.7419753,3.92659863 14.8419753,3.52659863 C15.1419753,3.22659863 14.9419753,4.32659863 14.9419753,4.52659863 L14.7419753,4.32659863 C14.9419753,5.32659863 15.4419753,4.12659863 15.7419753,4.82659863 C15.7419753,4.62659863 15.6419753,4.72659863 15.6419753,4.62659863 C15.8419753,4.12659863 15.7419753,4.72659863 15.8419753,4.92659863 C16.0419753,4.82659863 16.2419753,4.62659863 16.1419753,4.02659863 C16.3419753,3.92659863 16.1419753,4.42659863 16.1419753,4.62659863 L16.1419753,4.52659863 L16.3419753,5.22659863 C16.5419753,5.02659863 16.7419753,4.72659863 16.8419753,4.12659863 C17.2419753,4.22659863 16.9419753,5.52659863 17.1419753,5.72659863 C17.3419753,5.42659863 17.1419753,5.22659863 17.1419753,5.02659863 L17.3419753,5.12659863 C17.2419753,4.42659863 17.0419753,4.82659863 17.1419753,4.02659863 C17.3419753,4.82659863 17.4419753,4.22659863 17.6419753,4.82659863 L17.6419753,4.92659863 C17.7419753,5.42659863 18.0419753,5.12659863 18.1419753,5.22659863 C18.0419753,4.92659863 17.9419753,4.82659863 17.8419753,4.72659863 C18.0419753,4.52659863 18.4419753,4.72659863 18.5419753,5.42659863 C18.6419753,5.32659863 18.8419753,5.02659863 18.7419753,4.72659863 C19.1419753,4.62659863 18.8419753,5.72659863 19.1419753,5.52659863 L19.1419753,5.02659863 C19.4419753,4.22659863 19.8419753,5.72659863 20.1419753,5.02659863 L20.1419753,5.62659863 C20.2419753,5.32659863 20.3419753,5.22659863 20.3419753,4.92659863 L20.1419753,4.72659863 C20.2419753,4.22659863 20.3419753,5.22659863 20.4419753,4.82659863 C20.4419753,5.02659863 20.3419753,5.42659863 20.3419753,5.62659863 C19.6419753,5.32659863 18.9419753,6.12659863 18.2419753,5.52659863 C18.2419753,5.42659863 18.3419753,5.32659863 18.2419753,5.22659863 C18.1419753,5.42659863 18.0419753,5.22659863 18.0419753,5.52659863 L18.0419753,5.52659863 C17.8419753,5.42659863 17.6419753,6.12659863 17.5419753,6.12659863 C17.4419753,5.72659863 17.1419753,6.32659863 17.2419753,5.52659863 L17.1419753,6.02659863 C17.1419753,5.72659863 17.1419753,5.42659863 17.0419753,5.22659863 C16.9419753,5.32659863 16.9419753,5.62659863 16.9419753,5.72659863 C16.4419753,6.02659863 15.8419753,5.92659863 15.4419753,5.62659863 L15.5419753,6.02659863 C15.4419753,6.22659863 15.1419753,5.32659863 15.2419753,6.32659863 C15.0419753,5.92659863 14.5419753,6.52659863 14.6419753,5.62659863 C14.4419753,6.52659863 14.0419753,6.02659863 13.7419753,5.82659863 C13.8419753,5.02659863 13.4419753,5.62659863 13.4419753,5.22659863 C13.3419753,5.82659863 13.6419753,5.92659863 13.6419753,6.32659863 C13.4419753,5.32659863 12.6419753,6.92659863 12.6419753,5.32659863 C12.6419753,5.42659863 12.5419753,5.42659863 12.6419753,5.52659863 C12.5419753,5.52659863 12.4419753,5.82659863 12.3419753,5.82659863 C12.3419753,5.52659863 12.4419753,5.42659863 12.3419753,5.32659863 C12.2419753,5.32659863 12.2419753,5.82659863 12.1419753,6.02659863 C11.9419753,5.62659863 11.5419753,5.42659863 11.6419753,4.82659863 C11.5419753,5.02659863 11.4419753,5.32659863 11.4419753,5.42659863 C11.1419753,4.92659863 11.0419753,5.42659863 10.7419753,5.12659863 C10.8419753,5.12659863 10.7419753,5.82659863 10.9419753,5.52659863 C10.6419753,6.42659863 10.3419753,5.32659863 10.0419753,5.72659863 L10.0419753,5.12659863 C9.84197531,5.02659863 9.74197531,5.52659863 9.84197531,5.72659863 C9.44197531,6.02659863 9.34197531,5.62659863 9.14197531,5.62659863 C9.14197531,5.72659863 9.14197531,5.82659863 9.14197531,5.82659863 L8.74197531,5.82659863 C8.74197531,5.72659863 8.64197531,5.32659863 8.74197531,5.02659863 C9.14197531,4.82659863 9.14197531,5.02659863 9.34197531,4.92659863 Z"></path>
                            <path d="M12.5419753,2.52659863 C12.4419753,2.62659863 12.4419753,2.72659863 12.4419753,2.72659863 C12.4419753,2.62659863 12.5419753,2.52659863 12.5419753,2.52659863 Z"></path>
                            <path d="M6.14197531,2.82659863 C6.44197531,2.02659863 6.34197531,3.02659863 6.54197531,2.82659863 C6.44197531,2.62659863 6.64197531,2.12659863 6.64197531,1.92659863 C6.54197531,3.02659863 6.94197531,1.72659863 7.14197531,2.02659863 C7.24197531,1.62659863 7.14197531,1.52659863 7.14197531,1.12659863 C7.24197531,1.42659863 7.44197531,1.62659863 7.34197531,2.32659863 C7.64197531,2.42659863 7.84197531,2.22659863 8.04197531,2.32659863 C7.84197531,2.02659863 8.14197531,1.72659863 8.14197531,1.12659863 C8.24197531,1.92659863 8.54197531,2.82659863 8.64197531,3.82659863 C8.84197531,3.12659863 8.84197531,3.12659863 8.94197531,2.42659863 C9.34197531,2.02659863 8.94197531,3.12659863 9.34197531,2.92659863 L9.14197531,3.02659863 C9.24197531,3.22659863 9.14197531,3.92659863 9.14197531,4.32659863 L8.74197531,4.12659863 C8.64197531,4.62659863 8.94197531,4.52659863 8.94197531,4.72659863 C8.94197531,5.32659863 8.64197531,5.12659863 8.64197531,5.52659863 C8.64197531,5.12659863 8.44197531,5.22659863 8.34197531,5.02659863 L8.24197531,5.22659863 C8.04197531,5.42659863 8.04197531,4.82659863 7.84197531,4.72659863 C7.84197531,4.82659863 7.84197531,4.82659863 7.84197531,4.92659863 C7.84197531,4.62659863 7.84197531,4.22659863 7.74197531,4.12659863 L7.84197531,4.12659863 C7.84197531,3.52659863 7.54197531,3.02659863 7.94197531,2.42659863 L7.54197531,2.52659863 C7.44197531,3.22659863 7.34197531,4.22659863 7.54197531,4.32659863 L7.54197531,4.62659863 C7.24197531,4.92659863 7.14197531,4.02659863 7.34197531,3.52659863 C7.54197531,1.92659863 6.74197531,3.32659863 6.54197531,2.62659863 C6.44197531,3.02659863 6.54197531,3.22659863 6.54197531,3.52659863 C6.64197531,3.62659863 6.64197531,3.62659863 6.74197531,3.22659863 C7.04197531,3.52659863 6.34197531,4.52659863 6.84197531,4.52659863 C7.14197531,4.32659863 6.74197531,3.82659863 7.04197531,3.82659863 L7.04197531,5.02659863 C6.84197531,4.92659863 6.74197531,4.72659863 6.54197531,4.52659863 C5.84197531,3.52659863 5.04197531,4.02659863 5.04197531,4.02659863 C4.44197531,3.82659863 3.74197531,3.52659863 3.14197531,3.22659863 C2.54197531,2.92659863 1.84197531,2.62659863 1.24197531,2.22659863 C0.941975309,1.92659863 0.741975309,1.82659863 1.14197531,0.726598632 C1.34197531,0.526598632 1.54197531,0.726598632 1.64197531,0.326598632 C1.44197531,0.726598632 1.54197531,1.02659863 1.74197531,1.12659863 C1.94197531,0.726598632 1.64197531,0.826598632 1.74197531,0.826598632 L1.74197531,0.826598632 C1.84197531,0.626598632 1.84197531,0.426598632 1.84197531,0.426598632 C2.34197531,-0.0734013676 2.64197531,0.226598632 2.44197531,1.02659863 C2.84197531,0.726598632 2.54197531,0.326598632 2.64197531,0.0265986324 C3.34197531,-0.0734013676 3.74197531,0.126598632 4.34197531,0.326598632 C4.14197531,1.02659863 4.24197531,0.826598632 4.14197531,1.32659863 L4.24197531,1.02659863 C4.14197531,1.12659863 4.14197531,1.72659863 3.94197531,1.82659863 C4.54197531,1.32659863 4.04197531,2.92659863 4.24197531,3.32659863 L4.34197531,2.92659863 C4.54197531,3.02659863 4.64197531,3.12659863 4.74197531,3.32659863 C5.34197531,2.72659863 4.44197531,3.12659863 4.84197531,2.22659863 L4.94197531,2.42659863 C4.94197531,2.02659863 5.14197531,1.42659863 5.04197531,1.12659863 C5.14197531,1.82659863 5.54197531,1.02659863 5.74197531,1.62659863 C5.84197531,1.22659863 5.54197531,0.726598632 5.54197531,0.726598632 C5.64197531,0.726598632 5.84197531,1.12659863 5.94197531,0.726598632 L5.84197531,1.22659863 C6.04197531,1.32659863 5.94197531,0.726598632 6.14197531,0.426598632 C6.64197531,0.826598632 5.74197531,2.42659863 6.14197531,2.82659863 Z"></path>
                            <path d="M11.4419753,3.52659863 C11.3419753,3.52659863 11.3419753,3.52659863 11.2419753,3.42659863 C11.3419753,3.42659863 11.3419753,3.42659863 11.4419753,3.52659863 Z"></path>
                            <path d="M10.5419753,2.32659863 C10.5419753,2.22659863 10.5419753,2.22659863 10.5419753,2.12659863 C10.5419753,2.12659863 10.5419753,2.22659863 10.5419753,2.32659863 Z"></path>
                            <path d="M10.5419753,1.52659863 C10.4419753,1.72659863 10.5419753,1.82659863 10.5419753,2.12659863 C10.5419753,1.92659863 10.3419753,1.92659863 10.5419753,1.52659863 Z"></path>
                            <path d="M26.5419753,1.72659863 C26.6419753,1.82659863 26.7419753,2.02659863 26.8419753,2.12659863 L26.6419753,2.02659863 L26.5419753,1.72659863 Z"></path>
                            <path d="M26.3419753,2.42659863 L26.2419753,2.72659863 L25.9419753,2.02659863 C26.1419753,1.92659863 26.1419753,2.42659863 26.3419753,2.42659863 Z"></path>
                            <path d="M25.9419753,3.02659863 L26.0419753,3.22659863 C26.0419753,3.12659863 25.9419753,3.02659863 25.9419753,3.02659863 Z"></path>
                            <path d="M25.9419753,2.62659863 L25.7419753,2.12659863 L26.0419753,2.42659863 L25.9419753,2.62659863 C26.0419753,2.72659863 26.0419753,2.82659863 26.0419753,2.92659863 L25.9419753,2.62659863 C25.8419753,2.62659863 25.9419753,2.72659863 25.9419753,2.62659863 Z"></path>
                            <path d="M25.7419753,2.62659863 C25.7419753,2.52659863 25.7419753,2.52659863 25.7419753,2.42659863 C25.7419753,2.52659863 25.7419753,2.62659863 25.7419753,2.62659863 Z"></path>
                            <path d="M25.4419753,3.72659863 C25.4419753,3.52659863 25.3419753,3.22659863 25.2419753,3.02659863 C25.3419753,2.82659863 25.5419753,3.62659863 25.6419753,3.32659863 C25.3419753,2.92659863 25.6419753,3.02659863 25.7419753,2.62659863 C25.8419753,3.12659863 25.7419753,3.52659863 25.6419753,3.72659863 L25.5419753,3.42659863 C25.3419753,3.42659863 25.4419753,3.62659863 25.4419753,3.72659863 Z"></path>
                            <path d="M24.2419753,3.12659863 L24.4419753,3.62659863 C24.4419753,3.42659863 24.6419753,3.32659863 24.6419753,2.82659863 C24.7419753,2.92659863 24.7419753,3.12659863 24.8419753,3.22659863 C24.8419753,2.92659863 24.8419753,2.72659863 25.0419753,3.12659863 C24.7419753,3.52659863 24.8419753,3.62659863 24.5419753,3.82659863 C24.5419753,3.92659863 24.6419753,3.92659863 24.6419753,3.92659863 L24.4419753,4.22659863 C24.3419753,3.52659863 24.1419753,3.52659863 24.2419753,3.12659863 Z"></path>
                            <path d="M24.0419753,3.52659863 C24.2419753,3.52659863 24.3419753,4.02659863 24.3419753,4.32659863 L23.9419753,3.92659863 C23.9419753,3.92659863 24.1419753,4.02659863 24.0419753,3.52659863 Z"></path>
                            <path d="M23.7419753,3.52659863 C23.7419753,3.82659863 23.6419753,4.42659863 23.4419753,3.92659863 C23.7419753,3.92659863 23.5419753,3.22659863 23.7419753,3.52659863 Z"></path>
                            <path d="M22.5419753,4.12659863 L22.8419753,3.72659863 C22.8419753,3.02659863 22.6419753,3.52659863 22.5419753,3.22659863 C22.8419753,3.02659863 22.7419753,3.32659863 22.9419753,3.72659863 C23.0419753,3.72659863 23.1419753,4.02659863 23.2419753,4.22659863 C22.9419753,3.72659863 23.0419753,5.32659863 22.5419753,4.12659863 Z"></path>
                            <polygon points="23.2419753 3.42659863 23.2419753 3.62659863 23.0419753 3.42659863"></polygon>
                            <path d="M21.8419753,4.92659863 C21.6419753,5.72659863 21.4419753,4.52659863 21.2419753,4.82659863 C21.2419753,4.82659863 21.2419753,4.92659863 21.3419753,5.02659863 L21.1419753,4.92659863 L21.1419753,5.12659863 C21.1419753,4.62659863 20.9419753,4.42659863 20.8419753,4.12659863 C21.0419753,3.62659863 20.9419753,4.72659863 21.1419753,4.12659863 C21.1419753,3.92659863 21.0419753,3.52659863 21.0419753,3.42659863 C21.1419753,3.62659863 21.2419753,3.92659863 21.2419753,4.22659863 C21.3419753,4.32659863 21.3419753,4.02659863 21.3419753,3.82659863 C21.5419753,4.12659863 21.5419753,4.82659863 21.7419753,4.62659863 C21.8419753,4.22659863 21.6419753,3.92659863 21.8419753,4.12659863 C21.7419753,4.92659863 22.0419753,4.02659863 22.2419753,4.42659863 C22.4419753,4.22659863 22.5419753,3.82659863 22.4419753,3.52659863 C22.4419753,4.12659863 22.6419753,4.62659863 22.8419753,4.82659863 L22.5419753,4.32659863 L22.4419753,5.02659863 C22.0419753,4.72659863 21.9419753,4.82659863 21.8419753,4.92659863 L21.8419753,4.92659863 Z"></path>
                            <path d="M20.8419753,3.42659863 C20.8419753,3.42659863 20.8419753,3.32659863 20.7419753,3.32659863 C20.8419753,3.22659863 20.8419753,3.32659863 20.8419753,3.42659863 Z"></path>
                            <polygon points="22.3419753 3.32659863 22.2419753 3.22659863 22.3419753 3.02659863"></polygon>
                            <path d="M20.7419753,2.92659863 C20.7419753,2.92659863 20.8419753,3.12659863 20.7419753,3.12659863 L20.7419753,2.92659863 L20.7419753,2.92659863 Z"></path>
                            <polygon points="20.5419753 3.32659863 20.4419753 3.72659863 20.3419753 3.42659863"></polygon>
                            <path d="M16.4419753,3.62659863 C16.5419753,3.42659863 16.5419753,3.82659863 16.5419753,4.22659863 C16.3419753,4.32659863 16.5419753,3.82659863 16.4419753,3.62659863 Z"></path>
                            <path d="M13.9419753,2.82659863 C14.1419753,2.52659863 14.2419753,3.02659863 14.3419753,3.02659863 C14.1419753,3.22659863 14.0419753,3.12659863 13.9419753,2.82659863 Z"></path>
                            <path d="M13.0419753,1.12659863 C13.0419753,1.32659863 13.1419753,1.32659863 13.0419753,1.42659863 L13.0419753,2.32659863 C12.7419753,2.52659863 12.9419753,1.52659863 13.0419753,1.12659863 Z"></path>
                            <path d="M11.8419753,0.826598632 L11.9419753,1.12659863 L11.8419753,1.12659863 C11.8419753,1.42659863 11.8419753,1.62659863 11.9419753,1.92659863 C11.8419753,1.82659863 11.7419753,1.42659863 11.8419753,0.826598632 Z"></path>
                            <path d="M12.0419753,2.12659863 C12.0419753,2.12659863 12.0419753,2.12659863 12.0419753,2.12659863 C12.0419753,2.02659863 12.0419753,1.92659863 12.0419753,2.12659863 Z"></path>
                            <path d="M11.9419753,2.12659863 C11.9419753,2.02659863 11.9419753,2.02659863 11.9419753,2.12659863 C11.9419753,2.02659863 12.0419753,2.12659863 11.9419753,2.12659863 C12.0419753,2.22659863 11.9419753,2.22659863 11.9419753,2.12659863 Z"></path>
                            <path d="M11.6419753,1.22659863 L11.3419753,1.12659863 L11.5419753,1.02659863 C11.4419753,1.52659863 11.6419753,0.726598632 11.6419753,1.22659863 Z"></path>
                            <path d="M9.84197531,1.42659863 L9.74197531,1.92659863 C9.54197531,2.02659863 9.44197531,0.826598632 9.14197531,1.62659863 C9.34197531,1.32659863 9.04197531,1.02659863 9.34197531,0.926598632 C9.34197531,1.42659863 9.64197531,1.52659863 9.84197531,1.42659863 Z"></path>
                            <path d="M8.84197531,2.02659863 C8.84197531,2.22659863 8.74197531,2.22659863 8.74197531,2.42659863 C8.64197531,2.42659863 8.64197531,2.22659863 8.74197531,2.02659863 C8.64197531,2.62659863 8.84197531,1.62659863 8.84197531,2.02659863 Z"></path>
                            <path d="M7.84197531,1.72659863 C7.94197531,1.72659863 7.94197531,1.82659863 7.84197531,1.92659863 C7.64197531,1.82659863 7.84197531,1.32659863 7.84197531,0.926598632 C8.14197531,0.726598632 8.04197531,1.52659863 7.84197531,1.72659863 Z"></path>
                            <path d="M5.44197531,5.02659863 C5.54197531,4.62659863 5.74197531,4.72659863 5.74197531,4.82659863 C5.74197531,4.82659863 5.54197531,4.92659863 5.44197531,5.02659863 Z"></path>
                            <polygon points="6.34197531 1.52659863 6.44197531 1.42659863 6.34197531 2.12659863"></polygon>
                            <polygon points="5.34197531 0.826598632 5.34197531 0.426598632 5.54197531 0.526598632"></polygon>
                            <path d="M5.14197531,0.926598632 L4.94197531,0.826598632 L5.04197531,0.726598632 C5.14197531,0.626598632 5.04197531,0.926598632 5.14197531,0.926598632 Z"></path>
                            <path d="M4.64197531,0.626598632 C4.64197531,0.726598632 4.64197531,0.626598632 4.64197531,0.626598632 L4.84197531,0.826598632 L4.64197531,0.626598632 Z"></path>
                            <path d="M0.641975309,2.02659863 C0.441975309,2.42659863 0.441975309,2.12659863 0.341975309,2.12659863 C0.341975309,2.02659863 0.741975309,1.62659863 0.641975309,2.02659863 Z"></path>
                        </g>
                    </g>
                </g>
            </g>
        </g>
    </g>
</svg>