<?xml version="1.0" encoding="UTF-8"?>
<svg id="Calque_2" data-name="Calque 2" xmlns="http://www.w3.org/2000/svg" viewBox="0 0 55 61">
  <defs>
    <style>
      .cls-1 {
        stroke-linejoin: round;
      }

      .cls-1, .cls-2, .cls-3 {
        fill: none;
        stroke: #1c1c1c;
        stroke-width: 2px;
      }

      .cls-2, .cls-3 {
        stroke-miterlimit: 10;
      }

      .cls-3 {
        stroke-linecap: round;
      }
    </style>
  </defs>
  <g id="Icon_and_text" data-name="Icon and text">
    <g>
      <line class="cls-3" x1="11" y1="30" x2="11" y2="28"/>
      <path class="cls-1" d="M11,60h7s-8-5-5.48-14.67c1.4-5.35-2.52-5.33-6.52-5.33-3.27,0-5-3.54-5-6v-5l10-7h4V2s1.34-1,3-1c4,0,7,6.23,7,12,0,5-.86,8.17-2,10,3.23,10.96,23,0,23,22.44v10.56"/>
      <path class="cls-1" d="M32,60c-12-20,1-20,1-20"/>
      <line class="cls-1" x1="22" y1="60" x2="42" y2="60"/>
      <circle class="cls-2" cx="50" cy="56" r="4"/>
    </g>
  </g>
</svg>